<svg id="svg-404-error" xmlns="http://www.w3.org/2000/svg" xmlns:xlink="http://www.w3.org/1999/xlink" viewBox="0 0 266 96" shape-rendering="geometricPrecision" text-rendering="geometricPrecision" width="266" height="96"><style><![CDATA[#svg-404-error-chip-right-3_to {animation: svg-404-error-chip-right-3_to__to 3000ms linear infinite alternate forwards}@keyframes svg-404-error-chip-right-3_to__to { 0% {transform: translate(256px,92px)} 33.333333% {transform: translate(256px,88px)} 66.666667% {transform: translate(256px,92px)} 100% {transform: translate(252px,88px)} }#svg-404-error-chip-right-2_to {animation: svg-404-error-chip-right-2_to__to 3000ms linear infinite alternate forwards}@keyframes svg-404-error-chip-right-2_to__to { 0% {transform: translate(264px,74px)} 33.333333% {transform: translate(260px,74px)} 66.666667% {transform: translate(264px,74px)} 100% {transform: translate(260px,74px)} }#svg-404-error-chip-right-1_to {animation: svg-404-error-chip-right-1_to__to 3000ms linear infinite alternate forwards}@keyframes svg-404-error-chip-right-1_to__to { 0% {transform: translate(262px,40px)} 33.333333% {transform: translate(258px,40px)} 66.666667% {transform: translate(262px,40px)} 100% {transform: translate(258px,40px)} }#svg-404-error-chip-left-3_to {animation: svg-404-error-chip-left-3_to__to 3000ms linear infinite alternate forwards}@keyframes svg-404-error-chip-left-3_to__to { 0% {transform: translate(21px,72px)} 33.333333% {transform: translate(21px,76px)} 66.666667% {transform: translate(21px,72px)} 100% {transform: translate(21px,76px)} }#svg-404-error-chip-left-2_to {animation: svg-404-error-chip-left-2_to__to 3000ms linear infinite alternate forwards}@keyframes svg-404-error-chip-left-2_to__to { 0% {transform: translate(4px,74px)} 33.333333% {transform: translate(8px,74px)} 66.666667% {transform: translate(4px,74px)} 100% {transform: translate(8px,74px)} }#svg-404-error-chip-left-1_to {animation: svg-404-error-chip-left-1_to__to 3000ms linear infinite alternate forwards}@keyframes svg-404-error-chip-left-1_to__to { 0% {transform: translate(5px,54px)} 33.333333% {transform: translate(5px,58px)} 66.666667% {transform: translate(5px,54px)} 100% {transform: translate(9px,58px)} }]]></style><g id="svg-404-error-thumbprint"><path id="svg-404-error-path1" d="M158.800000,68.500000C156,71.500000,152.800000,74.100000,149.100000,76.100000C148.700000,76.300000,148.500000,76.800000,148.800000,77.200000C149.100000,77.600000,149.600000,77.700000,150.100000,77.400000C153.900000,75.300000,157.300000,72.600000,160.200000,69.400000C160.500000,69,160.500000,68.500000,160.100000,68.300000C159.700000,68.100000,159.100000,68.200000,158.800000,68.500000Z" fill="rgb(2,2,3)" stroke="none" stroke-width="1"/><path id="svg-404-error-path2" d="M163.500000,65.800000C161.800000,65.500000,160.200000,65,158.600000,64.500000C158.200000,64.400000,157.700000,64.500000,157.500000,64.800000C153.400000,69.900000,148,73.700000,141.500000,76.100000C137.400000,77.600000,133,78.400000,128.500000,78.400000C128,78.400000,127.600000,78.800000,127.600000,79.200000C127.600000,79.600000,128,80,128.500000,80L128.500000,80C133.200000,79.900000,137.800000,79.100000,142.200000,77.600000C148.900000,75.200000,154.400000,71.400000,158.600000,66.200000C160.100000,66.700000,161.600000,67.100000,163.100000,67.400000C163.600000,67.500000,164.100000,67.200000,164.200000,66.800000C164.300000,66.300000,164,65.900000,163.500000,65.800000Z" fill="rgb(2,2,3)" stroke="none" stroke-width="1"/><path id="svg-404-error-path3" d="M165.400000,62.800000C162.600000,62.300000,159.800000,61.500000,157.200000,60.300000C156.800000,60.100000,156.200000,60.200000,156,60.600000C152.200000,66.400000,146.800000,70.500000,140,73C132.200000,75.800000,123.300000,75.800000,115.300000,72.900000C114.800000,72.700000,114.300000,72.500000,113.900000,72.300000C113.400000,72.100000,112.900000,72.300000,112.700000,72.700000C112.500000,73.100000,112.700000,73.600000,113.100000,73.800000C113.600000,74,114.100000,74.200000,114.600000,74.400000C122.800000,77.400000,132.200000,77.600000,140.700000,74.500000C147.600000,72,153.100000,67.900000,157.100000,62.100000C159.600000,63.200000,162.300000,63.900000,165,64.400000C165.500000,64.500000,166,64.200000,166.100000,63.800000C166.300000,63.300000,165.900000,62.900000,165.400000,62.800000Z" fill="rgb(2,2,3)" stroke="none" stroke-width="1"/><path id="svg-404-error-path4" d="M123.600000,2.100000C125.600000,2.700000,127.600000,3.400000,129.500000,4.300000C129.600000,4.400000,129.800000,4.400000,129.900000,4.400000C130,4.400000,130.100000,4.400000,130.200000,4.300000C134.600000,2.800000,139.300000,1.900000,144.100000,1.600000C144.600000,1.600000,145,1.200000,145,0.800000C145,0.400000,144.500000,0,144,0.100000C139.200000,0.400000,134.500000,1.300000,130,2.800000C128.100000,2,126.200000,1.300000,124.200000,0.700000C123.700000,0.600000,123.200000,0.800000,123,1.200000C122.800000,1.500000,123.100000,2,123.600000,2.100000Z" fill="rgb(2,2,3)" stroke="none" stroke-width="1"/><path id="svg-404-error-path5" d="M167,59.800000C163,59.300000,159.200000,57.900000,156,55.900000C155.800000,55.800000,155.500000,55.700000,155.200000,55.800000C154.900000,55.900000,154.700000,56,154.600000,56.300000L154.600000,56.300000C151.100000,62.900000,145.800000,67.600000,138.700000,70.100000C131.900000,72.500000,124.100000,72.600000,116.900000,70C112.200000,68.300000,107.900000,65.300000,104.700000,61.600000C104.400000,61.200000,103.800000,61.200000,103.400000,61.400000C103,61.700000,102.900000,62.200000,103.200000,62.500000C106.600000,66.400000,111.200000,69.500000,116.200000,71.400000C123.700000,74.100000,132,74.200000,139.400000,71.500000C146.600000,68.900000,152.100000,64.300000,155.800000,57.600000C159.100000,59.500000,162.800000,60.700000,166.700000,61.200000C167.200000,61.300000,167.700000,61,167.800000,60.500000C167.800000,60.300000,167.500000,59.900000,167,59.800000Z" fill="rgb(2,2,3)" stroke="none" stroke-width="1"/><path id="svg-404-error-path6" d="M118.300000,4.200000C122.100000,4.800000,125.700000,6.100000,129.200000,7.800000C129.300000,7.900000,129.500000,7.900000,129.700000,7.900000C129.800000,7.900000,130,7.900000,130.100000,7.800000L130.300000,7.700000C135.700000,5.700000,141.300000,4.600000,147.200000,4.600000C149.100000,4.600000,151.100000,4.700000,153,5C153.500000,5.100000,154,4.800000,154,4.300000C154.100000,3.900000,153.700000,3.500000,153.200000,3.400000C151.200000,3.200000,149.100000,3,147.100000,3C141.100000,3,135.200000,4,129.700000,6.100000C126.200000,4.400000,122.500000,3.200000,118.700000,2.500000C118.200000,2.400000,117.700000,2.700000,117.600000,3.100000C117.500000,3.700000,117.800000,4.200000,118.300000,4.200000Z" fill="rgb(2,2,3)" stroke="none" stroke-width="1"/><path id="svg-404-error-path7" d="M168.100000,56.700000C162.900000,56.200000,158.100000,54,154.600000,50.500000C154.400000,50.300000,154.100000,50.200000,153.700000,50.200000C153.400000,50.300000,153.100000,50.500000,153,50.700000C152.500000,52.100000,151.800000,53.500000,151.100000,54.800000C148,60.700000,143.300000,64.800000,137.200000,67C131.300000,69.100000,124.500000,69.200000,118.200000,66.900000C112,64.600000,106.700000,60,104.200000,54.500000C103.300000,52.500000,102.700000,50.400000,102.400000,48.300000C102.300000,47.900000,101.900000,47.500000,101.400000,47.600000C100.900000,47.700000,100.500000,48.100000,100.600000,48.500000C100.900000,50.800000,101.500000,53,102.500000,55.100000C105.200000,61,110.800000,65.900000,117.500000,68.400000C124.100000,70.800000,131.400000,70.800000,137.900000,68.500000C144.500000,66.100000,149.500000,61.800000,152.800000,55.500000C153.300000,54.500000,153.800000,53.500000,154.200000,52.500000C157.900000,55.700000,162.600000,57.700000,167.800000,58.200000C168.300000,58.300000,168.800000,57.900000,168.800000,57.500000C168.900000,57.100000,168.600000,56.700000,168.100000,56.700000Z" fill="rgb(2,2,3)" stroke="none" stroke-width="1"/><path id="svg-404-error-path8" d="M113.800000,7C119,7.300000,124.300000,8.900000,129,11.500000C129.200000,11.600000,129.300000,11.600000,129.500000,11.600000C129.600000,11.600000,129.800000,11.600000,129.900000,11.500000C130.500000,11.200000,131.100000,11,131.700000,10.700000C136.600000,8.800000,141.800000,7.900000,147.100000,7.900000C151.200000,7.900000,155.300000,8.500000,159.200000,9.600000C159.700000,9.700000,160.200000,9.500000,160.400000,9.100000C160.600000,8.700000,160.300000,8.200000,159.800000,8.100000C155.700000,6.900000,151.400000,6.400000,147.100000,6.400000C141.500000,6.400000,136.100000,7.400000,131,9.300000C130.500000,9.500000,130,9.700000,129.500000,9.900000C124.700000,7.200000,119.300000,5.700000,113.900000,5.400000C113.400000,5.400000,113,5.700000,112.900000,6.100000C112.900000,6.600000,113.300000,6.900000,113.800000,7Z" fill="rgb(2,2,3)" stroke="none" stroke-width="1"/><path id="svg-404-error-path9" d="M168.800000,53.500000C165.800000,53.200000,162.800000,52.300000,160.300000,50.700000C157.300000,48.800000,155.100000,46.200000,153.900000,43.200000C153.700000,42.800000,153.500000,42.400000,153.200000,41.900000C153,41.600000,152.600000,41.500000,152.200000,41.500000C151.800000,41.600000,151.500000,41.800000,151.500000,42.200000C150.900000,46.200000,149.600000,50,147.700000,53.600000C145,58.700000,141,62.300000,135.700000,64.200000C130.500000,66.100000,124.700000,66,119.600000,64.100000C114.200000,62.100000,109.800000,58.200000,107.600000,53.500000C106.300000,50.700000,105.700000,47.700000,105.900000,44.700000C105.900000,44.400000,105.800000,44.200000,105.500000,44C105.300000,43.800000,104.900000,43.800000,104.700000,43.900000C103.400000,44.300000,102.100000,44.500000,100.800000,44.600000C100.300000,44.600000,99.900000,45,100,45.500000C100,45.900000,100.500000,46.300000,101,46.200000C102,46.100000,103.100000,46,104.100000,45.800000C104.100000,48.700000,104.700000,51.500000,106,54.100000C108.400000,59.200000,113.200000,63.500000,119,65.600000C124.700000,67.700000,131,67.700000,136.500000,65.700000C142.200000,63.600000,146.600000,59.800000,149.500000,54.300000C151,51.400000,152.200000,48.400000,152.900000,45.200000C154.300000,47.900000,156.500000,50.300000,159.300000,52C162.100000,53.700000,165.300000,54.800000,168.700000,55.100000C169.200000,55.100000,169.700000,54.800000,169.700000,54.400000C169.700000,53.900000,169.300000,53.600000,168.800000,53.500000Z" fill="rgb(2,2,3)" stroke="none" stroke-width="1"/><path id="svg-404-error-path10" d="M109.900000,10.200000C110.400000,10.200000,110.900000,10.100000,111.400000,10.100000C111.600000,10.100000,111.800000,10.100000,111.900000,10.100000C117.700000,10.100000,123.600000,11.900000,128.600000,15.200000C128.800000,15.300000,129,15.400000,129.200000,15.400000C129.400000,15.400000,129.600000,15.400000,129.700000,15.300000C130.800000,14.700000,131.900000,14.200000,133.100000,13.700000C137.500000,12,142.200000,11.200000,147,11.200000C152.100000,11.200000,157.100000,12.200000,162,14C162.500000,14.200000,163,14.400000,163.500000,14.600000C164,14.800000,164.500000,14.600000,164.700000,14.200000C164.900000,13.800000,164.800000,13.300000,164.300000,13.100000C163.800000,12.900000,163.300000,12.700000,162.700000,12.500000C157.600000,10.500000,152.300000,9.500000,147,9.500000C141.900000,9.500000,137,10.400000,132.300000,12.200000C131.200000,12.600000,130.200000,13.100000,129.200000,13.600000C124,10.300000,117.900000,8.500000,111.900000,8.500000C111.700000,8.500000,111.500000,8.500000,111.300000,8.500000C110.700000,8.500000,110.200000,8.500000,109.700000,8.600000C109.200000,8.600000,108.800000,9,108.900000,9.500000C109,9.900000,109.400000,10.200000,109.900000,10.200000Z" fill="rgb(2,2,3)" stroke="none" stroke-width="1"/><path id="svg-404-error-path11" d="M169.100000,50.300000C163.700000,49.800000,159.100000,46.600000,157.400000,42.200000C156.400000,39.600000,153.900000,37.300000,150.900000,36.100000C150.400000,35.900000,149.900000,35.800000,149.500000,35.600000C149.200000,35.500000,148.900000,35.600000,148.700000,35.700000C148.500000,35.900000,148.300000,36.100000,148.300000,36.300000C148.400000,41.800000,147,47.300000,144.500000,52.100000C142.200000,56.400000,138.800000,59.500000,134.500000,61C130.300000,62.500000,125.500000,62.500000,121.200000,60.900000C116.700000,59.300000,113,55.900000,111.200000,52C109.200000,47.800000,109.300000,43.100000,111.300000,38.100000C111.400000,37.700000,111.300000,37.300000,110.900000,37.100000C110.500000,36.900000,110,37,109.700000,37.200000C107.400000,39.400000,104.300000,40.700000,100.900000,41C100.400000,41,100,41.400000,100.100000,41.900000C100.200000,42.300000,100.600000,42.700000,101.100000,42.600000C103.800000,42.400000,106.400000,41.500000,108.600000,40.200000C107.400000,44.600000,107.700000,48.800000,109.500000,52.600000C111.500000,56.900000,115.600000,60.500000,120.500000,62.300000C125.300000,64.100000,130.600000,64.100000,135.200000,62.400000C140,60.700000,143.700000,57.400000,146.200000,52.700000C148.700000,48,150.100000,42.700000,150.200000,37.300000C150.200000,37.300000,150.200000,37.300000,150.200000,37.300000C152.800000,38.300000,154.900000,40.200000,155.700000,42.400000C157.700000,47.500000,162.800000,51.100000,168.900000,51.600000C169.400000,51.600000,169.900000,51.300000,169.900000,50.900000C170,50.700000,169.600000,50.300000,169.100000,50.300000Z" fill="rgb(2,2,3)" stroke="none" stroke-width="1"/><path id="svg-404-error-path12" d="M106.800000,13.900000C108.300000,13.600000,109.900000,13.400000,111.500000,13.400000C111.700000,13.400000,111.800000,13.400000,112,13.400000C117.800000,13.400000,123.800000,15.600000,128.500000,19.400000C128.800000,19.700000,129.400000,19.700000,129.700000,19.400000C131.200000,18.300000,132.800000,17.400000,134.600000,16.700000C138.600000,15.200000,142.700000,14.400000,147.100000,14.400000C151.700000,14.400000,156.200000,15.300000,160.600000,16.900000C162.600000,17.700000,164.500000,18.600000,166.400000,19.700000C166.600000,19.800000,166.700000,19.800000,166.900000,19.800000C167.200000,19.800000,167.500000,19.700000,167.700000,19.400000C168,19,167.900000,18.500000,167.500000,18.300000C165.600000,17.100000,163.500000,16.100000,161.400000,15.300000C156.800000,13.500000,152,12.600000,147.100000,12.600000C142.500000,12.600000,138.100000,13.400000,133.900000,15C132.200000,15.700000,130.600000,16.500000,129.100000,17.500000C124.200000,13.700000,117.900000,11.600000,111.900000,11.600000C111.700000,11.600000,111.600000,11.600000,111.400000,11.600000C109.700000,11.600000,107.900000,11.800000,106.200000,12.200000C105.700000,12.300000,105.400000,12.700000,105.500000,13.200000C105.800000,13.700000,106.300000,14,106.800000,13.900000Z" fill="rgb(2,2,3)" stroke="none" stroke-width="1"/><path id="svg-404-error-path13" d="M169.200000,47.100000C165.400000,46.600000,162.200000,44.400000,161,41.200000C159.700000,37.700000,156.500000,34.800000,152.400000,33.200000C150.600000,32.500000,148.900000,32.200000,147.100000,32.200000C146.400000,32.200000,145.700000,32.300000,145.100000,32.400000C144.600000,32.500000,144.300000,32.900000,144.300000,33.300000C145.100000,39.300000,143.900000,45.600000,141,51.100000C139.100000,54.700000,136.400000,57.100000,132.900000,58.400000C129.500000,59.600000,125.800000,59.500000,122.500000,58.300000C118.900000,57,115.900000,54.300000,114.500000,51.200000C112.700000,47.300000,113,42.600000,115.300000,38.100000C115.900000,36.900000,116.600000,35.500000,115.900000,33.900000C115.300000,32.600000,113.800000,31.300000,112,31.300000C110.200000,31.300000,109,32.800000,108.100000,34C106.500000,36.300000,103.800000,37.800000,100.800000,38.200000C100.300000,38.300000,99.900000,38.700000,100,39.100000C100.100000,39.500000,100.500000,39.800000,101,39.800000C104.600000,39.400000,107.800000,37.500000,109.600000,34.900000C109.900000,34.400000,110.900000,33,112,33C112.900000,33,113.800000,33.800000,114.100000,34.600000C114.500000,35.500000,114.100000,36.400000,113.500000,37.600000C111,42.500000,110.800000,47.700000,112.700000,52C114.300000,55.500000,117.700000,58.500000,121.700000,60C125.500000,61.400000,129.700000,61.500000,133.600000,60.100000C137.500000,58.700000,140.600000,56,142.700000,52C145.600000,46.500000,146.800000,40.200000,146.200000,34.200000C147.900000,34.100000,149.700000,34.400000,151.600000,35C155.100000,36.400000,158,39,159.100000,42C160.600000,45.800000,164.300000,48.500000,168.800000,49C169.300000,49.100000,169.800000,48.800000,169.800000,48.300000C170,47.500000,169.700000,47.100000,169.200000,47.100000Z" fill="rgb(2,2,3)" stroke="none" stroke-width="1"/><path id="svg-404-error-path14" d="M104.300000,18.100000C106.600000,17.100000,109.100000,16.600000,111.600000,16.600000C111.700000,16.600000,111.800000,16.600000,112,16.600000C117.900000,16.600000,123.900000,19.200000,128.200000,23.700000C128.300000,23.800000,128.400000,23.900000,128.400000,24C128.600000,24.200000,128.900000,24.300000,129.100000,24.300000C129.400000,24.300000,129.700000,24.200000,129.800000,24C131.300000,22.200000,133.500000,20.700000,136.100000,19.700000C139.600000,18.400000,143.300000,17.700000,147.100000,17.700000C151.200000,17.700000,155.200000,18.500000,159.100000,20C162.300000,21.200000,165.300000,22.900000,167.900000,25C168.100000,25.100000,168.300000,25.200000,168.500000,25.200000C168.700000,25.200000,169,25.100000,169.200000,24.900000C169.500000,24.600000,169.500000,24.100000,169.100000,23.800000C166.300000,21.600000,163.200000,19.800000,159.800000,18.500000C155.700000,16.900000,151.400000,16.100000,147,16.100000C142.900000,16.100000,139,16.800000,135.300000,18.200000C132.800000,19.100000,130.700000,20.500000,129,22.200000C124.500000,17.700000,118.100000,15,111.900000,15C111.800000,15,111.600000,15,111.500000,15C108.700000,15.100000,106,15.600000,103.400000,16.700000C102.900000,16.900000,102.700000,17.400000,103,17.800000C103.300000,18.100000,103.800000,18.300000,104.300000,18.100000Z" fill="rgb(2,2,3)" stroke="none" stroke-width="1"/><path id="svg-404-error-path15" d="M169.300000,43.800000C167.100000,43.400000,165.200000,42,164.500000,40.100000C162.800000,35.800000,158.900000,32.100000,153.900000,30.200000C151.700000,29.300000,149.400000,28.900000,147.100000,28.900000C145.100000,28.900000,143.100000,29.300000,141.300000,30C140.700000,30.200000,140.200000,30.500000,140.300000,31.100000C140.300000,31.400000,140.400000,31.700000,140.400000,32C140.400000,32.200000,140.500000,32.500000,140.500000,32.700000C141.400000,38.400000,140.400000,44.400000,137.700000,49.700000C137.200000,50.800000,135.500000,54,131.600000,55.400000C129.200000,56.300000,126.500000,56.200000,124,55.300000C121.300000,54.300000,119,52.300000,118,50C116.700000,47.200000,116.800000,44,118.200000,40.500000C118.500000,39.800000,118.800000,39.100000,119.100000,38.400000C119.600000,37.400000,120,36.600000,120.100000,35.900000C120.500000,34.500000,119.700000,32.600000,118.200000,31C116.500000,29.200000,114,28,112,28L111.900000,28C108,28.100000,105,32.300000,105,32.400000C104.100000,33.700000,102.500000,34.700000,100.800000,35C100.300000,35.100000,100,35.500000,100.100000,36C100.200000,36.400000,100.700000,36.700000,101.200000,36.600000C103.500000,36.200000,105.400000,35,106.600000,33.300000C107.200000,32.400000,109.600000,29.800000,112,29.700000L112.100000,29.700000C113.600000,29.700000,115.500000,30.700000,116.900000,32.100000C118.100000,33.300000,118.700000,34.700000,118.400000,35.600000C118.300000,36.200000,117.800000,37.100000,117.500000,37.800000C117.200000,38.500000,116.900000,39.200000,116.500000,40C114.900000,43.900000,114.900000,47.500000,116.300000,50.600000C117.600000,53.300000,120.200000,55.700000,123.300000,56.800000C126.300000,57.900000,129.500000,57.900000,132.300000,56.900000C136.900000,55.200000,138.800000,51.600000,139.400000,50.400000C142.300000,44.900000,143.400000,38.600000,142.400000,32.500000C142.400000,32.300000,142.300000,32,142.300000,31.800000C142.300000,31.600000,142.300000,31.600000,142.300000,31.500000C142.300000,31.500000,142.300000,31.500000,142.300000,31.500000C143.800000,30.900000,145.500000,30.700000,147.200000,30.700000C149.200000,30.700000,151.200000,31.100000,153.200000,31.900000C157.700000,33.600000,161.300000,37,162.800000,40.800000C163.700000,43.200000,166.100000,45.100000,169,45.600000C169.500000,45.700000,170,45.400000,170.100000,45C170.100000,44.400000,169.800000,43.900000,169.300000,43.800000Z" fill="rgb(2,2,3)" stroke="none" stroke-width="1"/><path id="svg-404-error-path16" d="M161.800000,23.900000C161.500000,24.300000,161.600000,24.800000,162,25C164.300000,26.400000,166.400000,28.100000,168.200000,30C168.400000,30.200000,168.600000,30.300000,168.900000,30.300000C169.100000,30.300000,169.300000,30.200000,169.500000,30.100000C169.900000,29.800000,170,29.300000,169.600000,29C167.700000,27,165.500000,25.200000,163,23.700000C162.700000,23.400000,162.100000,23.500000,161.800000,23.900000Z" fill="rgb(2,2,3)" stroke="none" stroke-width="1"/><path id="svg-404-error-path17" d="M136.900000,21.100000C134.300000,22.100000,132.100000,23.700000,130.800000,25.600000C130.500000,26,130.700000,26.500000,131.100000,26.700000C131.200000,26.800000,131.400000,26.800000,131.600000,26.800000C131.900000,26.800000,132.200000,26.700000,132.400000,26.400000C133.600000,24.700000,135.400000,23.400000,137.700000,22.500000C144,20.100000,151.100000,20.200000,157.700000,22.800000C158.200000,23,158.700000,22.800000,158.900000,22.400000C159.100000,22,158.900000,21.500000,158.400000,21.300000C151.300000,18.600000,143.600000,18.500000,136.900000,21.100000Z" fill="rgb(2,2,3)" stroke="none" stroke-width="1"/><path id="svg-404-error-path18" d="M102,22.900000C102.200000,22.900000,102.400000,22.800000,102.600000,22.700000C105.400000,20.800000,108.500000,19.900000,111.700000,19.800000C116.600000,19.700000,121.700000,21.900000,125.300000,25.700000C128.700000,29.200000,130.100000,33.500000,129.100000,37.400000C128.800000,38.800000,128.200000,40.100000,127.600000,41.300000L127.600000,41.300000C127.300000,41.900000,127.100000,42.500000,126.800000,43C126.600000,43.400000,126.900000,43.900000,127.400000,44C127.500000,44,127.600000,44,127.700000,44C128.100000,44,128.400000,43.800000,128.600000,43.500000C128.800000,43,129.100000,42.500000,129.300000,41.900000L129.300000,41.900000C129.900000,40.700000,130.500000,39.300000,130.900000,37.700000C131.900000,33.300000,130.400000,28.600000,126.700000,24.700000C122.700000,20.500000,117.100000,18.100000,111.600000,18.200000C108,18.300000,104.600000,19.400000,101.400000,21.500000C101.100000,21.700000,101,22,101,22.300000C101.200000,22.600000,101.500000,22.900000,102,22.900000Z" fill="rgb(2,2,3)" stroke="none" stroke-width="1"/><path id="svg-404-error-path19" d="M101.300000,33C102.200000,32.700000,102.900000,32.100000,103.400000,31.400000C103.400000,31.400000,106.900000,26.400000,111.800000,26.300000C114.400000,26.200000,117.400000,27.600000,119.600000,29.900000C121.500000,31.900000,122.400000,34.200000,121.900000,36.100000C121.700000,37,121.200000,37.900000,120.800000,38.900000C120.500000,39.500000,120.200000,40.200000,119.900000,40.900000C118.600000,44,118.500000,46.900000,119.700000,49.300000C120.600000,51.300000,122.500000,52.900000,124.700000,53.800000C126.800000,54.600000,129,54.600000,130.900000,53.900000C133.800000,52.900000,135.200000,50.600000,136.100000,49.100000C138.700000,44.100000,139.700000,38.400000,138.800000,33C138.800000,32.800000,138.700000,32.500000,138.700000,32.300000C138.600000,31.600000,138.400000,30.800000,138.500000,30.400000C138.600000,29.900000,139.400000,29.100000,140.600000,28.600000C145,26.900000,150,27,154.700000,28.800000C160.100000,30.900000,164.400000,35,166.300000,39.700000C166.700000,40.800000,167.600000,41.600000,168.800000,42.100000C169.300000,42.300000,169.800000,42.100000,170,41.700000C170.200000,41.300000,170,40.800000,169.500000,40.600000C168.800000,40.300000,168.300000,39.800000,168,39.200000C166,34.100000,161.300000,29.600000,155.400000,27.400000C150.200000,25.400000,144.700000,25.300000,139.800000,27.100000C138.100000,27.800000,136.800000,28.900000,136.600000,30.100000C136.500000,30.800000,136.600000,31.600000,136.800000,32.500000C136.800000,32.700000,136.900000,32.900000,136.900000,33.200000C137.700000,38.300000,136.800000,43.700000,134.400000,48.400000C133.700000,49.700000,132.500000,51.600000,130.200000,52.400000C128.700000,52.900000,127,52.900000,125.400000,52.300000C123.600000,51.600000,122.100000,50.300000,121.400000,48.700000C120.500000,46.700000,120.600000,44.200000,121.700000,41.500000C122,40.800000,122.300000,40.200000,122.600000,39.600000C123.100000,38.600000,123.600000,37.500000,123.800000,36.500000C124.400000,34.100000,123.400000,31.300000,121.100000,28.900000C118.600000,26.300000,115.100000,24.700000,111.900000,24.700000C105.900000,24.800000,102.100000,30.400000,101.900000,30.600000C101.600000,31,101.200000,31.400000,100.700000,31.600000C100.200000,31.800000,100,32.300000,100.200000,32.700000C100.300000,33,100.800000,33.100000,101.300000,33Z" fill="rgb(2,2,3)" stroke="none" stroke-width="1"/><path id="svg-404-error-path20" d="M101.700000,27.900000C103.400000,26.100000,106.900000,23.100000,111.700000,23C115.500000,22.900000,119.500000,24.700000,122.400000,27.700000C125.100000,30.500000,126.200000,33.700000,125.500000,36.700000C125.200000,37.800000,124.700000,38.900000,124.200000,40C123.900000,40.600000,123.600000,41.200000,123.400000,41.900000C122.400000,44.300000,122.300000,46.300000,123.100000,48C123.600000,49.200000,124.800000,50.200000,126.200000,50.700000C129.200000,51.800000,131.400000,50.100000,132.800000,47.500000C135.100000,43.100000,136,38,135.200000,33.200000C135.200000,33,135.100000,32.800000,135.100000,32.500000C134.900000,31.500000,134.700000,30.500000,134.900000,29.600000C135.300000,27.500000,137.400000,26.100000,139.200000,25.400000C150.800000,21,163.400000,27.200000,168.300000,35.500000C168.500000,35.900000,169.100000,36,169.500000,35.800000C170,35.600000,170.100000,35.100000,169.900000,34.700000C167.100000,30,162.200000,26.100000,156.500000,24C150.500000,21.800000,144,21.700000,138.300000,23.900000C135.400000,25,133.300000,27.100000,132.900000,29.300000C132.700000,30.500000,132.900000,31.600000,133.100000,32.700000C133.100000,32.900000,133.200000,33.100000,133.200000,33.300000C133.900000,37.800000,133.100000,42.500000,131,46.700000C130.100000,48.400000,128.800000,49.800000,126.800000,49C125.900000,48.700000,125.100000,48,124.700000,47.200000C124.100000,45.900000,124.200000,44.300000,125,42.200000C125.200000,41.600000,125.500000,41,125.800000,40.400000C126.300000,39.200000,126.900000,38.100000,127.200000,36.800000C128,33.400000,126.700000,29.600000,123.700000,26.500000C120.500000,23.100000,115.800000,21.100000,111.600000,21.200000C106.100000,21.300000,102.100000,24.700000,100.200000,26.600000C99.900000,26.900000,99.900000,27.400000,100.300000,27.700000C100.800000,28.300000,101.400000,28.200000,101.700000,27.900000Z" fill="rgb(2,2,3)" stroke="none" stroke-width="1"/></g><g id="svg-404-error-chip-right-3_to" transform="translate(256,92)"><rect id="svg-404-error-chip-right-3" width="8" height="8" rx="0" ry="0" transform="translate(-4,-4)" fill="rgb(2,2,3)" stroke="none" stroke-width="1"/></g><g id="svg-404-error-chip-right-2_to" transform="translate(264,74)"><rect id="svg-404-error-chip-right-2" width="4" height="4" rx="0" ry="0" transform="translate(-2,-2)" fill="rgb(2,2,3)" stroke="none" stroke-width="1"/></g><g id="svg-404-error-chip-right-1_to" transform="translate(262,40)"><rect id="svg-404-error-chip-right-1" width="8" height="8" rx="0" ry="0" transform="translate(-4,-4)" fill="rgb(2,2,3)" stroke="none" stroke-width="1"/></g><polygon id="svg-404-error-right-4" points="240,80 240,73 247.100000,73 247.100000,66.300000 255,66.300000 255,63 258,63 258,52 251,52 251,45.400000 247.100000,45.400000 247.100000,33.100000 221.200000,33.100000 221.200000,45.400000 210.100000,45.400000 240.900000,0 212.700000,0 178,49.100000 178,66.300000 220.400000,66.300000 220.400000,80" transform="matrix(1 0 0 1 0 -0.44364395000000)" fill="rgb(2,2,3)" stroke="none" stroke-width="1"/><g id="svg-404-error-chip-left-3_to" transform="translate(21,72)"><rect id="svg-404-error-chip-left-3" width="4" height="4" rx="0" ry="0" transform="translate(-2,-2)" fill="rgb(2,2,3)" stroke="none" stroke-width="1"/></g><g id="svg-404-error-chip-left-2_to" transform="translate(4,74)"><rect id="svg-404-error-chip-left-2" width="8" height="8" rx="0" ry="0" transform="translate(-4,-4)" fill="rgb(2,2,3)" stroke="none" stroke-width="1"/></g><g id="svg-404-error-chip-left-1_to" transform="translate(5,54)"><rect id="svg-404-error-chip-left-1" width="4" height="4" rx="0" ry="0" transform="translate(-2,-2)" fill="rgb(2,2,3)" stroke="none" stroke-width="1"/></g><polygon id="svg-404-error-left-4" points="81.100000,45.400000 81.100000,33.100000 55.200000,33.100000 55.200000,45.400000 44.100000,45.400000 74.900000,0 46.700000,0 12,49.100000 12,55 15,55 15,59 19,59 19,63 23,63 23,66.300000 54.400000,66.300000 54.400000,80 81.100000,80 81.100000,66.300000 92,66.300000 92,45.400000" fill="rgb(2,2,3)" stroke="none" stroke-width="1"/></svg>