<svg width="512" height="512" viewBox="0 0 512 512" fill="none" xmlns="http://www.w3.org/2000/svg">
<rect width="512" height="512" fill="white"/>
<path d="M192 160L32 160L32 320H96L96 224H160C177.6 224 192 238.4 192 256V272C192 280 186 286.8 178 287.6L176 288H164C161.791 288 160 289.791 160 292L160 352H192C227.2 352 256 325.2 256 290V224C256 188.8 227.2 160 192 160Z" fill="black"/>
<path d="M448 288C448 305.673 433.673 320 416 320C398.327 320 384 305.673 384 288C384 270.327 398.327 256 416 256C433.673 256 448 270.327 448 288Z" fill="black"/>
<path d="M448 192C448 209.673 433.673 224 416 224C398.327 224 384 209.673 384 192C384 174.327 398.327 160 416 160C433.673 160 448 174.327 448 192Z" fill="black"/>
<path d="M372.394 64.1146C365.193 64.1146 358.792 58.1154 358.392 50.1165L357.992 48.1168V36.1184C357.992 34.1186 356.392 32.5188 355.192 32.1189C355.192 32.1189 355.192 32.1189 354.792 32.1189C353.591 32.1189 352.791 32.1189 351.991 33.3187L327.988 59.3153C325.187 62.5148 321.587 64.1146 317.586 64.1146L197.57 64.1146C190.369 64.1146 183.968 58.1154 183.568 50.1165L183.168 48.1168V36.1184C183.168 32.5188 179.167 30.5191 177.167 33.3187L97.1557 121.307C94.7554 123.707 96.3556 128.106 99.5561 128.106L279.981 128.106C283.982 128.106 287.182 130.906 287.982 134.905L287.982 476.059C287.982 479.659 292.383 481.259 294.783 478.859L343.59 426.066C349.191 420.067 351.991 412.468 351.991 404.469L351.991 134.905C352.391 130.906 355.992 128.106 359.992 128.106H377.995C383.595 128.106 388.396 124.507 391.197 119.307L401.198 96.1103L416 64.1146H372.394Z" fill="black"/>
</svg>
