<svg xmlns="http://www.w3.org/2000/svg" width="16" height="14" fill="none" viewBox="0 0 16 14">
    <path fill="#000" d="M14.527 11.577H9v.85h5.527l-1.08.974.665.599L16 12.3v-.6L14.112 10l-.666.6 1.081.977z"/>
    <path fill="#000" fill-rule="evenodd" d="M.976 2.084L8 4.775l7.024-2.691c-.142-.643-.705-1.122-1.377-1.122H2.353c-.672 0-1.235.48-1.377 1.122zm14.083 1.014v5.037H16V2.404C16 1.076 14.947 0 13.647 0H2.353C1.053 0 0 1.076 0 2.404v7.692C0 11.424 1.053 12.5 2.353 12.5H7v-.961H2.353c-.78 0-1.412-.646-1.412-1.443V3.098L8 5.802l7.059-2.704z" clip-rule="evenodd"/>
</svg>
