<svg width="168" height="68" viewBox="0 0 168 68" fill="none" xmlns="http://www.w3.org/2000/svg">
<path d="M67.2034 45.8814C67.1739 45.8662 67.1149 45.8662 67.0854 45.8205C66.9822 45.6683 66.7905 45.5161 66.7905 45.3486C66.7905 45.0746 67.0707 45.1051 67.2624 45.0289C68.0587 44.7245 68.8255 44.3896 69.6218 44.1156C71.2291 43.5523 72.8512 42.9891 74.4732 42.4715C75.3285 42.1975 76.2133 42.0301 77.0833 41.7865C77.4224 41.6952 77.7321 41.5277 78.0565 41.4364C79.192 41.1624 80.3274 40.9036 81.4629 40.6296C82.0232 40.4926 82.5688 40.2947 83.1144 40.1577C83.7633 40.0054 84.4416 39.9445 85.0757 39.7314C85.7835 39.4879 86.5208 39.3965 87.2433 39.2595C88.0544 39.0921 88.8506 38.8942 89.6469 38.7115C89.7354 38.6963 89.8386 38.6506 89.9271 38.6506C91.0036 38.6963 91.8293 38.1026 92.6404 37.5241C93.4809 36.9304 94.2772 36.2911 95.103 35.6822C95.1767 35.6213 95.2357 35.5452 95.3242 35.4691C95.2209 35.1646 95.1177 34.8754 95.0145 34.5709C94.7196 34.8145 94.4836 35.0276 94.233 35.2103C93.9823 35.4082 93.7316 35.3473 93.4957 35.1646C93.0533 34.7993 92.7878 34.3426 92.7289 33.7641C92.6699 33.2618 92.6109 32.7594 92.5372 32.1048C92.257 32.5311 92.0505 32.8507 91.8588 33.1856C91.6082 33.6119 91.387 34.0533 91.1363 34.4644C91.0331 34.647 90.8709 34.7993 90.7529 34.9667C90.6054 35.1494 90.4432 35.3168 90.34 35.53C90.1336 35.9257 89.7354 36.215 89.411 36.1541C88.9244 36.0627 88.6295 35.7583 88.5852 35.2407C88.482 34.2208 88.3935 33.2009 88.2903 32.0896C87.9806 32.5767 87.7889 33.0486 87.5972 33.5206C87.4645 33.8707 87.3023 34.2056 87.1696 34.5405C87.0369 34.8906 86.9042 35.2407 86.8009 35.5908C86.6977 35.9562 86.5355 36.215 86.1226 36.2759C85.6802 36.3368 85.4296 36.2302 85.3411 35.7583C85.1494 34.784 85.0609 33.8098 85.1936 32.8051C85.2231 32.6376 85.2379 32.455 85.1789 32.2571C84.9577 32.6376 84.7512 33.0334 84.5153 33.3988C84.2056 33.8859 83.8812 34.3882 83.5126 34.8449C83.1587 35.3016 82.7605 35.7431 82.3329 36.1389C81.802 36.6412 81.109 36.5194 80.8435 35.9257C80.7551 35.7278 80.6518 35.53 80.6223 35.3168C80.4749 34.5253 80.4896 33.7489 80.6813 32.9573C81.0205 31.5416 81.6546 30.2933 82.7753 29.3647C83.1292 29.0755 83.5421 28.8472 83.9697 28.6645C84.3531 28.4818 84.766 28.6645 85.1051 29.1212C85.1936 29.243 85.2674 29.38 85.4001 29.6083C85.5328 29.3343 85.6213 29.1364 85.7097 28.9233C85.813 28.7102 85.8719 28.4818 86.0194 28.2991C86.2701 27.9947 86.6535 28.0556 86.7862 28.4362C86.8599 28.634 86.8599 28.8624 86.8452 29.0755C86.8157 29.5017 86.7272 29.928 86.683 30.3542C86.5798 31.2524 86.4913 32.1505 86.3881 33.1552C86.9042 32.1809 87.376 31.298 87.8332 30.3847C88.2608 29.5474 88.6589 28.6949 89.0571 27.8425C89.1013 27.7511 89.1308 27.6293 89.2045 27.5989C89.3668 27.5228 89.5732 27.4315 89.7207 27.4619C89.8534 27.4923 89.9861 27.675 90.0303 27.8272C90.0746 27.9795 90.0746 28.1926 90.0008 28.3448C89.6322 29.1973 89.6174 30.1107 89.6174 31.0088C89.6174 32.0896 89.6617 33.1857 89.6912 34.3578C89.8239 34.2512 89.9124 34.2056 89.9566 34.1447C90.6792 32.9116 91.3575 31.6634 92.1095 30.4456C92.8468 29.2277 93.0828 27.8425 93.3482 26.4724C93.4514 25.9701 93.6284 25.4829 93.8053 25.011C94.115 24.189 94.4394 23.3518 94.7933 22.545C95.0587 21.936 95.3832 21.3576 95.6928 20.7639C95.7518 20.6573 95.8255 20.566 95.8993 20.4899C96.091 20.3072 96.2974 20.2615 96.5333 20.3833C96.784 20.5051 96.843 20.7334 96.7988 20.977C96.7398 21.3119 96.6661 21.6316 96.5628 21.9513C96.032 23.7323 95.4569 25.4829 94.7048 27.1879C94.5721 27.4771 94.5131 27.7816 94.4541 28.086C94.2772 29.0298 94.1002 29.9889 93.938 30.9327C93.7906 31.8004 93.879 32.6529 94.0855 33.5814C94.2182 33.4749 94.3362 33.414 94.4099 33.3227C94.5574 33.14 94.6458 32.9116 94.8081 32.7442C95.2652 32.2418 95.3979 31.6177 95.5011 30.9631C95.5454 30.7043 95.6633 30.4456 95.7665 30.202C95.914 29.8823 96.0762 29.5626 96.2384 29.2582C96.3269 29.106 96.4006 28.8928 96.5333 28.8319C96.7693 28.7254 97.0347 28.6493 97.2854 28.6797C97.5361 28.7102 97.6246 28.9842 97.6393 29.2277C97.654 29.4409 97.6688 29.6692 97.6098 29.8823C97.3886 30.7043 97.1527 31.5111 96.725 32.2571C96.3711 32.8812 96.3269 33.5662 96.3711 34.2665C96.3859 34.5557 96.5776 34.6623 96.8135 34.4948C97.0789 34.3121 97.3444 34.1142 97.5656 33.8859C98.0669 33.3835 98.583 32.866 99.0549 32.318C99.8954 31.3285 100.677 30.2781 101.193 29.0451C101.311 28.7711 101.488 28.5427 101.621 28.2839C102.181 27.2031 102.373 26.031 102.594 24.8436C102.8 23.7475 103.081 22.6667 103.302 21.5707C103.508 20.5203 103.685 19.47 103.877 18.4196C103.906 18.2674 103.936 18.1151 103.98 17.9629C104.098 17.5823 104.29 17.4301 104.585 17.4453C104.865 17.4758 105.057 17.6889 105.101 18.0542C105.13 18.2826 105.145 18.5261 105.116 18.7697C105.057 19.4547 105.012 20.155 104.924 20.84C104.835 21.5859 104.747 22.3166 104.629 23.0625C104.555 23.5649 104.452 24.0672 104.305 24.5544C104.01 25.5134 103.892 26.5181 103.626 27.4771C103.39 28.3144 103.449 29.1973 103.154 30.0193C103.066 30.2781 103.14 30.5978 103.14 30.8718C103.42 31.0849 103.641 30.9022 103.862 30.8109C105.057 30.2933 106.251 29.7605 107.46 29.2734C108.094 29.0146 108.758 28.8167 109.421 28.6493C109.805 28.5427 110.218 28.5427 110.616 28.5123C110.955 28.497 110.999 28.6949 110.896 28.9842C109.775 29.3952 108.61 29.6844 107.563 30.2324C106.797 30.6282 105.956 30.8261 105.219 31.2828C104.688 31.6177 104.083 31.8308 103.493 32.0896C103.169 32.2418 102.977 32.5158 102.933 32.866C102.83 33.6119 102.741 34.3578 102.712 35.1037C102.682 35.6213 102.786 35.7126 103.272 35.804C103.479 35.8344 103.656 35.8953 103.818 36.078C103.921 36.1998 104.142 36.3063 104.305 36.2911C105.676 36.1693 107.033 36.0171 108.404 35.8496C108.891 35.7887 109.377 35.6517 109.879 35.6061C111.073 35.4995 112.267 35.4386 113.477 35.3625C114.568 35.3016 115.659 35.1798 116.735 35.1798C117.576 35.1798 118.402 35.3473 119.242 35.4538C119.39 35.4691 119.537 35.5604 119.67 35.6365C119.921 35.7887 120.053 36.0323 119.965 36.3368C119.906 36.5499 119.832 36.763 119.714 36.9304C119.272 37.585 118.741 38.1635 118.181 38.7267C117.429 39.4726 116.455 39.8989 115.762 40.6905C114.465 41.3907 113.373 42.4563 112.017 43.05C111.913 43.0957 111.84 43.1718 111.648 43.2936C111.84 43.324 111.928 43.3697 111.987 43.3544C112.975 42.9891 113.963 42.6085 114.951 42.228C115.998 41.8322 117.03 41.4212 118.063 41.0254C118.829 40.7361 119.611 40.4621 120.392 40.1729C120.702 40.0663 121.012 39.975 121.307 39.838C121.543 39.7314 121.823 39.6096 121.956 39.3965C122.25 38.9551 122.472 38.4527 122.722 37.9656C122.914 37.585 123.106 37.1892 123.312 36.8087C123.74 36.0323 124.167 35.2712 124.595 34.4948C124.713 34.2665 124.831 34.0381 124.92 33.8098C125.318 32.8355 125.686 31.8308 126.099 30.8566C126.586 29.6996 126.94 28.497 127.338 27.2944C127.633 26.3963 127.942 25.5134 128.223 24.6C128.355 24.1738 128.473 23.7323 128.37 23.2452C127.928 23.1995 127.53 23.2909 127.131 23.3974C126.822 23.4888 126.497 23.5801 126.188 23.6105C125.583 23.6714 125.141 23.1082 125.332 22.5297C125.391 22.3471 125.568 22.1644 125.745 22.0883C126.011 21.9817 126.306 21.9665 126.586 21.9208C127.323 21.799 128.046 21.662 128.798 21.5403C128.827 21.0531 128.871 20.6269 128.871 20.2007C128.871 19.8049 128.473 19.333 128.046 19.2416C127.353 19.0894 126.674 18.9067 125.952 18.9828C125.362 19.0437 124.772 18.9676 124.167 18.9828C123.032 18.9981 121.911 19.0285 120.776 19.0437C120.702 19.0437 120.628 19.0589 120.54 19.0589C119.685 19.0133 118.829 18.9676 117.959 18.8915C116.853 18.8154 115.747 18.7088 114.642 18.6175C113.314 18.5109 112.031 18.2521 110.778 17.7802C110.395 17.6432 110.203 17.354 110.203 16.9734C110.203 16.5929 110.38 16.3797 110.837 16.2427C111.56 16.0296 112.282 15.8469 113.005 15.649C114.199 15.3141 115.379 14.9336 116.588 14.6139C117.812 14.2942 119.036 14.0202 120.26 13.7158C121.307 13.457 122.339 13.1677 123.371 12.8937C124.005 12.7263 124.639 12.5893 125.273 12.437C126.129 12.2239 126.984 12.0108 127.825 11.752C128.665 11.5085 129.491 11.204 130.42 10.9148C130.272 10.8234 130.213 10.7473 130.14 10.7321C129.225 10.5038 128.326 10.245 127.397 10.1689C126.497 10.0927 125.598 10.0471 124.713 9.89485C123.356 9.68173 121.985 9.62084 120.614 9.49906C119.891 9.43817 119.169 9.46861 118.431 9.43817C117.561 9.3925 116.676 9.33161 115.806 9.30116C115.276 9.28594 114.745 9.33161 114.214 9.33161C113.521 9.31639 112.813 9.27072 112.12 9.2555C111.486 9.24027 110.867 9.20983 110.232 9.20983C109.466 9.20983 108.699 9.20983 107.947 9.22505C107.283 9.24027 106.605 9.2555 105.941 9.28594C104.835 9.31639 103.729 9.34683 102.623 9.37728C102.388 9.37728 102.166 9.3925 101.93 9.3925C100.824 9.43817 99.7185 9.48384 98.6273 9.54473C97.3591 9.62084 96.091 9.66651 94.8228 9.83396C93.997 9.95574 93.1417 9.9253 92.3012 9.97096C91.5934 10.0166 90.9003 10.0775 90.1925 10.108C89.4847 10.1536 88.7769 10.2145 88.0839 10.1841C87.7889 10.1689 87.5087 9.9253 87.2286 9.78829C87.5382 9.1946 88.0838 8.95104 88.5852 8.90537C89.4405 8.84448 90.2958 9.01193 91.151 8.89015C91.9031 8.78359 92.6846 8.76837 93.4367 8.70748C94.6901 8.61614 95.9582 8.5248 97.2117 8.40302C97.5951 8.37258 97.9637 8.29646 98.3324 8.20512C98.642 8.12901 98.9222 8.0529 99.2761 8.17468C99.512 8.26602 99.807 8.08334 100.102 8.14423C100.441 8.20513 100.81 8.14423 101.164 8.09857C101.459 8.06812 101.753 7.99201 102.122 7.91589C102.299 7.94634 102.564 8.03767 102.83 8.0529C103.685 8.06812 104.555 8.0529 105.41 8.0529C106.944 8.0529 108.463 8.03767 109.997 8.0529C111.206 8.06812 112.4 8.11379 113.609 8.11379C114.155 8.11379 114.715 8.08334 115.261 8.0529C115.335 8.0529 115.423 8.03767 115.497 8.0529C116.426 8.25079 117.34 8.1899 118.269 8.06812C118.726 8.00723 119.198 8.11379 119.67 8.14423C120.333 8.1899 121.012 8.20512 121.675 8.28124C122.604 8.37257 123.533 8.47913 124.462 8.58569C124.521 8.58569 124.58 8.61614 124.639 8.61614C125.819 8.5857 126.954 8.92059 128.105 9.13371C129.063 9.30116 130.007 9.57517 130.951 9.80351C131.157 9.84918 131.349 9.94052 131.526 10.0471C132.13 10.4124 132.204 10.9452 131.658 11.3715C131.201 11.7216 130.67 11.9651 130.154 12.2239C129.004 12.8328 127.751 13.1221 126.483 13.3809C125.76 13.5331 125.052 13.8071 124.33 13.9898C123.519 14.2029 122.693 14.3703 121.882 14.5682C121.1 14.7509 120.319 14.9336 119.537 15.1467C118.534 15.4207 117.546 15.7404 116.559 15.9992C115.556 16.2732 114.553 16.4863 113.565 16.7451C113.403 16.7908 113.255 16.8821 113.078 16.9734C113.27 17.2627 113.55 17.2474 113.757 17.2779C114.671 17.3997 115.585 17.491 116.5 17.5976C117.089 17.6585 117.679 17.765 118.269 17.7802C119.906 17.8259 121.557 17.8107 123.194 17.8563C124.123 17.8868 125.067 17.7346 125.996 17.8868C126.556 17.9781 127.146 17.8868 127.721 17.8563C128.282 17.8259 128.812 17.9629 129.24 18.2826C129.712 18.6327 129.992 19.1655 130.007 19.8049C130.022 20.2159 130.036 20.6421 130.066 21.0531C130.095 21.4337 130.184 21.5098 130.538 21.4641C130.818 21.4337 131.098 21.3424 131.349 21.2206C131.762 21.0379 131.968 21.0379 132.175 21.2815C132.558 21.7077 132.587 21.9208 132.381 22.3318C132.145 22.8494 131.673 23.0777 131.157 23.0016C130.833 22.956 130.508 22.9864 130.184 22.9712C129.904 22.956 129.771 23.093 129.697 23.3518C129.52 23.9911 129.314 24.6305 129.122 25.2698C128.945 25.8483 128.768 26.442 128.591 27.0204C128.532 27.2336 128.429 27.4315 128.385 27.6446C128.149 28.8167 127.633 29.8823 127.279 31.0088C126.778 32.5463 125.996 33.962 125.421 35.4538C125.126 36.215 124.698 36.8848 124.33 37.585C124.108 37.996 123.917 38.4223 123.696 38.879C124.212 39.0464 124.595 38.742 125.008 38.6506C125.79 38.4832 126.571 38.2548 127.338 38.0569C127.485 38.0113 127.633 37.9656 127.78 37.9047C128.016 37.8134 128.237 37.6611 128.473 37.6459C129.697 37.585 130.818 37.0979 131.998 36.8696C133.31 36.626 134.608 36.3063 135.92 36.0475C137.026 35.8344 138.132 35.6517 139.253 35.4843C140.152 35.3473 141.066 35.2407 141.981 35.1189C142.025 35.1189 142.054 35.1189 142.099 35.1037C143.308 34.6775 144.591 34.784 145.815 34.4187C146.478 34.2208 147.216 34.3121 147.909 34.236C148.557 34.1751 149.206 34.099 149.84 34.0077C150.46 33.9163 151.079 33.8098 151.713 33.7032C151.772 33.688 151.816 33.6576 151.905 33.6271C151.861 33.551 151.846 33.4597 151.787 33.4444C151.123 33.14 151.153 32.5463 151.256 31.9831C151.33 31.572 151.521 31.161 151.713 30.7805C151.949 30.2933 152.244 29.8214 152.509 29.3495C151.949 28.8624 151.418 28.4209 150.843 27.9186C150.666 28.223 150.489 28.4666 150.356 28.7406C150.003 29.4561 149.427 29.9889 148.852 30.5217C148.381 30.9631 147.584 30.6891 147.319 30.0802C147.216 29.8519 147.157 29.5931 147.053 29.2734C146.862 29.4409 146.714 29.6083 146.537 29.7453C146.257 29.9736 145.977 30.2172 145.667 30.4151C144.945 30.8718 144.502 30.7805 143.986 30.1107C143.957 30.0802 143.927 30.065 143.853 30.0041C143.559 30.1868 143.396 30.476 143.175 30.75C142.895 31.1001 142.63 31.4655 142.305 31.7699C141.774 32.2723 141.184 31.9069 140.963 31.4655C140.831 31.2067 140.772 30.9175 140.654 30.5978C140.595 30.6282 140.491 30.6435 140.477 30.7043C140.167 31.4046 139.503 31.7547 139.002 32.2571C138.501 32.7442 137.926 32.5463 137.645 32.0287C137.409 31.5873 137.277 31.1154 137.409 30.613C137.439 30.5217 137.454 30.4303 137.395 30.2933C137.336 30.3694 137.291 30.4456 137.232 30.5217C136.923 30.9936 136.598 31.4503 136.289 31.9222C136.112 32.181 135.935 32.4397 135.773 32.6985C135.551 33.0486 135.301 33.0943 134.947 32.8964C134.46 32.6072 134.386 32.1201 134.372 31.6177C134.357 30.6282 134.445 29.6387 134.711 28.6797C134.726 28.6036 134.726 28.5275 134.74 28.4209C133.885 29.5931 133.118 30.7957 132.116 31.8004C132.027 31.8765 131.968 31.9831 131.894 32.0744C131.629 32.4702 131.26 32.6681 130.803 32.5463C130.331 32.4245 130.11 32.0135 130.095 31.572C130.066 30.9022 130.036 30.202 130.213 29.5779C130.479 28.6493 130.862 27.7664 131.29 26.8987C131.776 25.9244 132.499 25.1176 133.31 24.4173C133.516 24.2347 133.797 24.0672 134.062 23.9911C134.74 23.7932 135.316 23.9759 135.684 24.737C135.802 24.5544 135.891 24.4326 135.95 24.3108C136.068 24.0825 136.171 23.8541 136.303 23.641C136.495 23.3518 136.879 23.2909 137.159 23.4735C137.336 23.5953 137.395 23.8998 137.247 24.1129C136.879 24.6152 136.731 25.1937 136.657 25.8178C136.613 26.168 136.451 26.5029 136.362 26.8378C136.127 27.812 135.891 28.7863 135.669 29.7758C135.655 29.8366 135.625 29.8975 135.64 29.9432C135.669 30.0345 135.699 30.1411 135.758 30.1715C135.817 30.202 135.979 30.1715 136.009 30.1107C136.377 29.5017 136.746 28.8776 137.1 28.2535C137.247 27.9795 137.395 27.7055 137.527 27.4162C137.793 26.8073 138.029 26.1832 138.294 25.5743C138.722 24.6 139.149 23.641 139.607 22.682C139.784 22.3166 139.961 22.2557 140.255 22.3775C140.58 22.4993 140.698 22.7124 140.58 23.093C140.447 23.5497 140.255 23.9759 140.093 24.4173C139.636 25.5895 139.341 26.8073 139.105 28.0556C138.958 28.8624 138.766 29.6692 138.604 30.4912C138.574 30.6434 138.589 30.7957 138.574 30.9936C138.914 30.9479 139.061 30.75 139.208 30.5064C139.4 30.1715 139.592 29.8366 139.828 29.517C140.536 28.5884 141.022 27.538 141.376 26.4268C141.406 26.3354 141.42 26.2289 141.465 26.1375C141.922 25.1024 142.379 24.052 142.851 23.0169C142.939 22.819 143.116 22.6211 143.293 22.4841C143.5 22.3166 143.75 22.2709 143.986 22.4688C144.193 22.6363 144.252 22.9255 144.119 23.23C144.001 23.4735 143.853 23.7171 143.736 23.9607C143.264 24.8436 143.087 25.8483 142.733 26.7921C142.408 27.6446 142.172 28.5123 142.069 29.4256C142.054 29.5474 142.04 29.654 142.04 29.7758C142.04 29.8214 142.084 29.8823 142.128 29.9736C142.217 29.9128 142.305 29.8823 142.349 29.8062C142.865 29.0755 143.426 28.36 143.898 27.5989C144.207 27.0813 144.384 26.4876 144.635 25.9244C145.018 25.0719 145.417 24.2195 145.815 23.367C145.859 23.2604 145.933 23.1234 146.021 23.093C146.228 23.0473 146.478 22.9864 146.67 23.0473C146.891 23.1082 146.95 23.367 146.891 23.5953C146.817 23.8541 146.699 24.1129 146.596 24.3565C146.375 24.9197 146.139 25.4829 145.918 26.0462C145.711 26.6094 145.505 27.1879 145.328 27.7664C145.225 28.1013 145.136 28.4514 145.107 28.8015C145.077 29.106 145.372 29.2582 145.623 29.0755C145.741 28.9842 145.829 28.8472 145.918 28.7254C146.183 28.3144 146.375 27.8425 146.699 27.4923C147.157 27.0052 147.289 26.3963 147.481 25.8026C147.805 24.8284 148.115 23.8693 148.469 22.8951C148.616 22.4688 148.823 22.0578 149.015 21.662C149.118 21.4337 149.31 21.2967 149.56 21.2967C149.929 21.2815 150.209 21.5707 150.121 21.936C149.958 22.6667 149.752 23.3822 149.531 24.0825C149.368 24.5848 149.147 25.0719 149 25.5743C148.823 26.1832 148.675 26.7921 148.513 27.401C148.381 27.9338 148.41 28.4818 148.351 29.1364C148.572 29.0298 148.72 28.9994 148.779 28.9233C149.486 27.8881 150.209 26.853 150.563 25.6352C150.725 25.0719 150.769 24.463 150.917 23.8998C151.123 23.0777 151.344 22.2557 151.58 21.4489C151.698 21.0531 151.949 20.9161 152.273 21.0075C152.583 21.0988 152.76 21.3424 152.716 21.7381C152.642 22.21 152.568 22.682 152.406 23.1234C152.052 24.1281 151.993 25.1785 151.89 26.2136C151.816 26.9595 152.111 27.6141 152.716 28.0708C152.996 28.2839 153.129 28.2687 153.35 28.0099C153.438 27.9034 153.512 27.7816 153.586 27.675C154.087 26.9443 154.692 26.3202 155.414 25.8178C155.768 25.5743 156.122 25.4677 156.565 25.5134C156.594 25.8026 156.358 25.9244 156.196 26.0462C155.798 26.3202 155.547 26.7008 155.311 27.1118C155.046 27.5685 154.795 28.0404 154.515 28.4818C154.382 28.6949 154.308 28.9385 154.456 29.1516C154.869 29.8062 154.633 30.4608 154.412 31.0849C154.19 31.6634 153.807 32.1353 153.365 32.5615C153.099 32.8203 152.863 33.0791 152.583 33.3683C152.893 33.5967 153.173 33.5358 153.453 33.5053C154.839 33.3531 156.225 33.1856 157.612 33.0182C158.526 32.9116 159.425 32.7594 160.34 32.6376C160.797 32.5767 161.254 32.6072 161.711 32.5767C162.301 32.5311 162.891 32.455 163.48 32.4397C164.365 32.4093 165.235 32.4093 166.12 32.3941C166.371 32.3941 166.621 32.3788 166.857 32.3636C167.255 32.318 167.565 32.5158 167.86 32.7442C168.111 32.9421 168.008 33.3683 167.683 33.5206C167.491 33.5967 167.27 33.6271 167.064 33.6423C165.781 33.688 164.498 33.7337 163.215 33.7793C162.419 33.8098 161.593 33.7641 160.811 33.9011C159.189 34.1751 157.538 34.1751 155.916 34.4339C154.751 34.6166 153.571 34.7536 152.391 34.8906C151.315 35.0124 150.224 35.1037 149.147 35.2407C148.086 35.3777 147.024 35.5604 145.977 35.7126C145.033 35.8496 144.075 35.9562 143.131 36.078C142.6 36.1389 142.069 36.2302 141.538 36.2911C140.831 36.3824 140.137 36.4585 139.43 36.5651C138.604 36.7021 137.763 36.8391 136.938 37.0066C136.023 37.1892 135.094 37.4024 134.18 37.6155C133.236 37.8286 132.278 38.0569 131.334 38.27C130.39 38.4832 129.447 38.7115 128.503 38.9398C128.237 39.0007 127.987 39.1073 127.736 39.1682C127.279 39.29 126.807 39.3965 126.35 39.5335C125.672 39.7314 124.993 39.9293 124.33 40.1424C123.961 40.2642 123.592 40.3708 123.253 40.5535C122.973 40.7057 122.678 40.9036 122.501 41.1624C121.852 42.1518 121.262 43.187 120.628 44.2069C120.378 44.6027 120.098 44.9833 119.817 45.3486C119.508 45.7444 119.213 46.1402 118.992 46.6121C118.77 47.084 118.387 47.4646 118.077 47.8908C117.723 48.3475 117.34 48.8042 117.001 49.2761C116.47 49.9916 115.969 50.7375 115.438 51.4529C114.995 52.0466 114.568 52.6555 114.096 53.2188C113.226 54.2235 112.341 55.1825 111.442 56.1568C110.778 56.8722 110.1 57.5573 109.421 58.2423C109.333 58.3336 109.2 58.4097 109.112 58.4859C108.817 58.7294 108.522 58.9882 108.227 59.2318C107.667 59.7037 107.121 60.1908 106.561 60.6627C106.31 60.8758 106.089 61.1194 105.823 61.3021C105.116 61.8044 104.393 62.2915 103.685 62.7939C103.405 62.9918 103.14 63.2201 102.845 63.4028C102.225 63.7834 101.562 64.1183 100.957 64.5141C99.7775 65.2752 98.4798 65.7775 97.2264 66.4169C96.9462 66.5691 96.6808 66.6148 96.3859 66.6909C95.5896 66.904 94.8081 67.1476 94.0118 67.3759C93.8053 67.4368 93.6136 67.4977 93.4072 67.5282C92.5077 67.6652 91.5934 67.8022 90.6792 67.8935C90.0746 67.9544 89.4552 68.0001 88.8506 68.0001C88.1576 68.0001 87.4645 67.9696 86.7862 67.924C85.5623 67.8326 84.3236 67.6652 83.2029 67.1324C81.4629 66.3103 79.8703 65.2448 79.0003 63.3571C78.7201 62.7482 78.3662 62.1698 78.1745 61.5304C77.6289 59.7037 77.4962 57.8465 77.968 55.9741C78.2925 54.6954 78.6316 53.4167 79.251 52.2445C79.9293 50.9506 80.5781 49.611 81.5366 48.4997C81.743 48.2714 81.8905 47.9822 82.0822 47.7386C82.9817 46.5817 83.8517 45.4095 84.7955 44.2983C85.3706 43.6132 86.0636 43.05 86.6977 42.4259C86.8452 42.2736 87.0074 42.1214 87.1548 41.9844C87.376 41.7713 87.5972 41.5582 87.8332 41.3603C88.1723 41.0558 88.5262 40.7666 88.8654 40.4469C88.9539 40.3708 88.9834 40.2186 89.0718 40.0359C88.6147 40.1272 88.2313 40.1424 87.8921 40.2947C87.1401 40.6144 86.3291 40.6296 85.5475 40.797C85.1494 40.8731 84.7807 41.0254 84.3826 41.1167C83.6158 41.2842 82.8342 41.3907 82.0674 41.5734C81.3449 41.7408 80.6371 41.9692 79.9145 42.1671C79.6638 42.2432 79.3984 42.2888 79.133 42.365C77.9828 42.6542 76.8179 42.913 75.6677 43.2174C75.0926 43.3697 74.547 43.598 73.9719 43.7807C73.9424 43.7959 73.8981 43.8111 73.8686 43.8263C72.7627 44.1765 71.6125 44.4657 70.5508 44.9224C69.6955 45.2877 68.8402 45.4247 67.9407 45.5313C67.69 45.5922 67.4688 45.7596 67.2034 45.8814ZM120.673 41.5886C120.643 41.5429 120.614 41.4973 120.599 41.4668C120.319 41.5582 120.039 41.6343 119.758 41.7408C119.08 41.9996 118.431 42.365 117.738 42.5172C116.735 42.7455 115.821 43.1413 114.907 43.598C114.774 43.6589 114.627 43.7046 114.479 43.7655C113.919 43.9634 113.359 44.1612 112.813 44.3896C112.415 44.5418 112.046 44.7549 111.663 44.9224C110.881 45.2573 110.085 45.5313 109.318 45.8814C108.478 46.262 107.652 46.6578 106.856 47.1145C106.045 47.5711 105.16 47.906 104.511 48.6367C104.467 48.6824 104.378 48.7433 104.319 48.7281C103.715 48.6367 103.317 49.0934 102.859 49.337C102.137 49.7328 101.488 50.2503 100.78 50.707C100.485 50.8897 100.161 51.0267 99.866 51.1942C99.5268 51.4073 99.1876 51.6356 98.8485 51.864C98.6863 51.9705 98.5241 52.0771 98.3766 52.1989C98.1849 52.3511 97.9785 52.3054 97.7868 52.2141C97.3296 51.9857 97.1822 51.3768 97.5508 50.9658C97.9342 50.5548 98.3619 50.1742 98.7895 49.8393C99.2024 49.5197 99.7185 49.3522 99.9839 48.8651C100.013 48.8042 100.102 48.789 100.176 48.7585C100.648 48.5758 101.193 48.5302 101.444 47.9669C101.473 47.906 101.606 47.8908 101.694 47.8452C102.166 47.6168 102.653 47.4341 103.095 47.1601C104.334 46.4142 105.543 45.6379 106.752 44.8615C107.327 44.4962 107.888 44.146 108.463 43.7807C109.598 43.05 110.69 42.2432 111.884 41.6038C113.034 40.9949 114.007 40.1424 115.099 39.4422C115.88 38.9398 116.588 38.3462 117.325 37.7677C117.62 37.5394 117.9 37.2958 118.151 37.0218C118.402 36.763 118.313 36.5042 117.974 36.4129C117.871 36.3824 117.753 36.3824 117.635 36.3824C116.293 36.4129 114.966 36.4281 113.624 36.489C112.459 36.5499 111.294 36.6412 110.129 36.763C108.256 36.9609 106.398 37.1892 104.54 37.4176C103.479 37.5546 102.417 37.6916 101.355 37.8438C100.574 37.9504 99.807 38.0721 99.0254 38.1939C98.701 38.2396 98.3913 38.3614 98.0669 38.4223C96.6513 38.6811 95.2357 38.9246 93.8201 39.1682C93.6579 39.1986 93.4809 39.1986 93.304 39.2443C92.8616 39.3661 92.4044 39.4422 91.9916 39.6401C91.0331 40.112 90.2368 40.8122 89.4995 41.619C89.3225 41.8017 89.1603 41.9996 88.9539 42.1366C87.7889 42.913 86.8304 43.9329 85.9014 44.9833C85.813 45.0898 85.7097 45.1812 85.6213 45.2877C85.1641 45.7901 84.6775 46.262 84.2646 46.7948C83.837 47.3276 83.4978 47.9365 83.0997 48.4845C82.6278 49.1239 82.0822 49.7176 81.6546 50.3874C80.6223 52.0314 79.6638 53.7059 79.2362 55.6544C78.8086 57.5725 78.6611 59.4601 79.2362 61.3782C79.5459 62.4133 80.0325 63.2962 80.6666 64.1183C81.3449 64.9707 82.2444 65.5492 83.1734 66.0668C84.0877 66.5691 85.0757 66.8888 86.1079 67.0106C87.0369 67.1171 87.9806 67.1476 88.9096 67.0563C90.1925 66.9345 91.4607 66.8431 92.7141 66.5539C93.4809 66.3865 94.233 66.1581 94.9703 65.9298C95.6781 65.7014 96.3711 65.4274 97.0937 65.1991C97.5951 65.0469 98.0522 64.8337 98.4946 64.5445C99.0402 64.1944 99.5415 63.7834 100.146 63.5094C100.913 63.1745 101.621 62.6873 102.343 62.2459C102.682 62.0328 103.066 61.8349 103.331 61.5456C103.965 60.891 104.717 60.4496 105.425 59.9016C105.75 59.658 106.059 59.384 106.354 59.1252C106.929 58.6229 107.519 58.1053 108.094 57.5877C108.242 57.4659 108.404 57.3441 108.522 57.1919C109.082 56.4765 109.79 55.9132 110.439 55.2738C111.043 54.6649 111.604 54.0256 112.135 53.3558C112.725 52.6251 113.241 51.8487 113.816 51.1333C114.037 50.8593 114.184 50.6005 114.081 50.2351C114.524 50.159 114.818 49.9459 115.054 49.611C115.29 49.2609 115.585 48.9412 115.851 48.6063C116.308 47.9974 116.676 47.3428 117.134 46.7339C117.664 46.0489 117.974 45.2116 118.564 44.557C118.859 44.2374 119.036 43.8111 119.301 43.4458C119.744 42.8216 120.216 42.2127 120.673 41.5886ZM101.473 33.1248C101.296 33.1704 101.193 33.1856 101.09 33.2465C100.647 33.4901 100.205 33.7184 99.7775 33.9925C99.1729 34.373 98.5536 34.7384 98.008 35.2103C97.5508 35.5908 97.0495 35.8344 96.5628 36.1541C95.914 36.5803 95.2799 37.0066 94.6459 37.4328C94.5279 37.5089 94.4394 37.6155 94.3362 37.722C94.3509 37.7677 94.3657 37.8134 94.3952 37.8438C96.8135 37.4328 99.2319 37.0218 101.709 36.5955C101.178 35.4538 101.459 34.2969 101.473 33.1248ZM131.216 30.9479C131.275 30.9631 131.319 30.9936 131.378 31.0088C131.555 30.7957 131.688 30.5673 131.894 30.3999C132.823 29.6083 133.472 28.5884 134.136 27.5685C134.357 27.2336 134.519 26.8378 134.681 26.4572C134.785 26.2136 134.755 25.9548 134.578 25.7417C134.386 25.5134 134.121 25.5438 133.885 25.6504C133.679 25.757 133.472 25.8787 133.34 26.0462C132.764 26.7617 132.234 27.5076 131.894 28.3753C131.717 28.8015 131.511 29.2277 131.393 29.6844C131.275 30.1107 131.275 30.5369 131.216 30.9479ZM83.778 30.3847C83.3356 30.3694 83.0259 30.6435 82.79 30.9784C82.0085 32.1353 81.6988 33.4292 81.7283 34.8297C81.7283 34.8754 81.7873 34.921 81.8315 35.0124C81.9347 34.9667 82.0675 34.9667 82.1264 34.8906C82.7458 34.0686 83.3651 33.2465 83.955 32.4093C84.4121 31.7243 84.3383 31.0697 83.778 30.3847ZM101.591 30.4456C101.193 31.1001 100.869 31.6482 100.5 32.2571C101.665 32.0439 101.783 31.4655 101.591 30.4456Z" fill="black"/>
<path d="M39.7907 66.904C39.5105 67.726 38.5225 67.9391 38.0064 67.3454C37.6967 66.9801 37.505 66.5691 37.4755 66.0667C37.4165 65.2752 37.4755 64.4836 37.682 63.7224C37.9326 62.8091 38.1243 61.8653 38.4635 60.9823C39.0239 59.4905 39.6432 58.0291 40.3068 56.583C40.9851 55.1216 41.7519 53.7059 42.4892 52.2749C42.6956 51.8791 42.9316 51.4833 43.1675 51.1028C43.5804 50.4178 44.008 49.748 44.4357 49.0782C44.8486 48.4388 45.2762 47.7994 45.6891 47.1601C45.7923 46.9926 45.8955 46.81 45.984 46.6273C45.9545 46.5968 45.925 46.5512 45.8955 46.5207C45.7186 46.5664 45.5416 46.6121 45.3647 46.6425C44.4946 46.7795 43.6246 46.9317 42.7546 47.0535C42.2827 47.1144 41.7961 47.1296 41.3242 47.1753C40.9851 47.221 40.6459 47.3123 40.3068 47.3428C38.4045 47.495 36.4875 47.632 34.5853 47.769C33.671 47.8299 32.7568 47.906 31.8278 47.906C31.061 47.9212 30.3089 47.8299 29.5421 47.8147C28.8343 47.7994 28.1265 47.8299 27.4187 47.8147C26.9763 47.8147 26.5487 47.769 26.1063 47.7233C24.6759 47.6015 23.2456 47.4645 21.8152 47.3275C21.1074 47.2514 20.4143 47.1601 19.7065 47.0535C18.7038 46.9013 17.701 46.7338 16.713 46.5664C16.5951 46.5512 16.4919 46.5055 16.3886 46.4598C15.6956 46.2315 15.0173 45.9879 14.3094 45.79C14.044 45.7139 13.8081 45.6226 13.6016 45.4247C13.5279 45.3486 13.4099 45.3029 13.3067 45.2572C12.0975 44.8006 10.8736 44.3895 9.69392 43.9024C8.4405 43.3848 7.23133 42.7607 6.05164 42.03C4.73924 41.208 3.63328 40.1424 2.61581 39.0007C2.21766 38.5592 1.8785 38.0417 1.58358 37.5089C1.02323 36.5194 0.551355 35.469 0.300671 34.3425C0.108972 33.4901 0.0352421 32.5767 0.00574998 31.6938C-0.0237422 30.9479 0.0647346 30.2019 0.167957 29.456C0.389148 27.6293 1.06747 25.9548 1.80477 24.2955C1.93749 24.0063 2.05545 23.7171 2.21766 23.4431C3.1909 21.7686 4.22313 20.1245 5.57977 18.7392C6.46453 17.8259 7.33455 16.9125 8.2488 16.0296C9.17781 15.1162 10.151 14.2637 11.2128 13.5026C12.0533 12.8937 12.8643 12.2239 13.7343 11.6454C14.7223 10.9756 15.7546 10.3667 16.772 9.74258C17.2439 9.45335 17.7305 9.16412 18.2171 8.89011C18.9692 8.49432 19.7212 8.11375 20.4733 7.73318C21.417 7.26128 22.3608 6.75893 23.3193 6.33269C24.1451 5.96734 24.9856 5.64767 25.8261 5.34321C27.0648 4.90175 28.3182 4.46029 29.5864 4.0645C30.4416 3.79049 31.3264 3.57737 32.1964 3.34903C33.1992 3.09024 34.1871 2.81623 35.2046 2.57267C35.7502 2.43567 36.2958 2.37478 36.8414 2.25299C37.5345 2.11599 38.2276 1.94854 38.9206 1.81153C39.2303 1.75064 39.5547 1.70497 39.8791 1.65931C40.6164 1.55275 41.3537 1.44619 42.091 1.33963C42.4302 1.29396 42.7694 1.24829 43.1085 1.20262C43.8606 1.11129 44.6274 1.00473 45.3794 0.928616C45.7923 0.89817 46.2199 0.95906 46.6476 0.943837C47.9747 0.913392 49.2871 0.822057 50.6143 0.852502C51.5875 0.867725 52.546 1.03517 53.5045 1.12651C53.9764 1.17218 54.463 1.20262 54.9201 1.29396C55.3478 1.37007 55.7754 1.50708 56.203 1.61364C56.2915 1.64408 56.38 1.68975 56.4685 1.70497C57.5744 1.88765 58.5624 2.45089 59.6094 2.78579C60.1107 2.93802 60.4499 3.33381 60.8333 3.63826C61.6591 4.27762 62.3964 5.05398 62.9715 5.9369C63.4139 6.62192 63.6793 7.42873 63.8415 8.25075C64.0922 9.52946 64.1364 10.8234 64.0479 12.1326C64.0184 12.4979 63.9152 12.8632 63.871 13.2438C63.812 13.6548 63.7825 14.0506 63.7235 14.4616C63.7088 14.5834 63.6645 14.69 63.635 14.7965C63.5171 15.2989 63.3844 15.786 63.2811 16.2884C63.2074 16.6385 63.2959 16.7603 63.635 16.8212C63.9742 16.882 64.3134 16.9125 64.6673 16.9582C65.5373 17.0952 66.4073 17.2017 67.2773 17.3844C68.2358 17.5975 69.1796 17.8563 70.1086 18.1303C70.7869 18.3282 71.4652 18.5261 72.1288 18.7544C73.0725 19.0741 74.0163 19.409 74.9305 19.7896C75.2992 19.9418 75.6089 20.2311 75.9628 20.429C77.2162 21.1292 78.3959 21.936 79.3249 23.0625C80.2981 24.2499 80.8437 25.6047 80.9764 27.1422C81.0649 28.1317 80.9174 29.0907 80.534 29.9736C80.1064 30.9631 79.6198 31.9221 78.8677 32.7137C78.6908 32.8964 78.5581 33.1095 78.3959 33.3074C78.1747 33.5662 77.9535 33.8554 77.6881 34.0837C77.1277 34.5861 76.5379 35.058 75.9628 35.5451C75.8743 35.6212 75.7858 35.6974 75.6826 35.7583C74.5914 36.4433 73.5002 37.1283 72.3942 37.7981C71.3472 38.4375 70.2413 39.0007 69.1206 39.503C67.6755 40.1424 66.2451 40.8122 64.7852 41.4059C64.1364 41.6799 63.4286 41.8321 62.765 42.0452C62.4406 42.1518 62.1015 42.2431 61.777 42.3649C59.7273 43.1261 57.6481 43.7959 55.51 44.283C54.8022 44.4504 54.1091 44.6788 53.416 44.8767C53.1801 44.9376 52.9294 44.9985 52.6935 45.0593C51.44 45.3334 50.1866 45.653 48.9185 45.8509C48.2549 45.9575 47.7683 46.2315 47.4144 46.7643C47.1637 47.1296 46.9278 47.5254 46.6918 47.8908C46.2789 48.4997 45.866 49.1086 45.4679 49.7327C45.1287 50.2655 44.8043 50.7983 44.4799 51.3311C43.9196 52.2597 43.3592 53.1731 42.8283 54.1017C42.5334 54.6345 42.2975 55.1977 42.0321 55.7305C41.7961 56.2024 41.4865 56.6439 41.2948 57.131C40.9556 58.0139 40.469 58.8207 40.1003 59.6884C39.6579 60.7083 39.3188 61.7891 38.9649 62.8547C38.7732 63.4332 38.5962 64.0269 38.4635 64.6206C38.375 65.062 38.3455 65.5187 38.3603 65.9602C38.375 66.63 38.6847 66.8735 39.3335 66.8127C39.481 66.8888 39.6137 66.904 39.7907 66.904ZM59.5061 3.37948C59.5209 3.33381 59.5356 3.28814 59.5504 3.25769C59.5061 3.22725 59.4767 3.18158 59.4324 3.15114C58.5919 2.61834 57.6187 2.39 56.6749 2.17688C55.5837 1.91809 54.4482 1.78109 53.3275 1.68975C51.9709 1.56797 50.6143 1.49186 49.2576 1.50708C47.96 1.50708 46.6623 1.65931 45.3499 1.7202C44.244 1.76587 43.138 1.8572 42.0615 2.17688C41.9731 2.20733 41.8698 2.20733 41.7814 2.22255C40.9851 2.34433 40.2035 2.48134 39.4073 2.60312C39.363 2.60312 39.3335 2.63356 39.304 2.63356C38.8027 2.75534 38.3013 2.90757 37.7999 3.01413C36.753 3.22725 35.6765 3.34903 34.6443 3.62304C33.0812 4.01883 31.5476 4.50596 29.9993 4.96264C27.3892 5.70856 24.8676 6.66759 22.4493 7.9463C21.3286 8.53999 20.1489 9.04234 19.0282 9.6208C18.1434 10.0775 17.2587 10.5646 16.4034 11.0974C15.5629 11.615 14.7666 12.1934 13.9408 12.7415C13.5721 12.985 13.174 13.1981 12.8348 13.4722C11.7731 14.2942 10.7114 15.101 9.70867 15.9839C7.33455 18.0238 5.19637 20.3224 3.44159 22.9711C2.91073 23.778 2.39461 24.5848 2.05545 25.4829C1.64256 26.5485 1.3034 27.6445 0.993737 28.7406C0.566101 30.2476 0.639831 31.8003 0.949499 33.3226C1.18544 34.4339 1.55409 35.4995 2.05545 36.5346C2.89598 38.27 4.1199 39.6248 5.55027 40.7818C6.43504 41.4972 7.46726 41.9996 8.42576 42.6085C9.29577 43.1717 10.269 43.4914 11.198 43.9024C11.8616 44.1916 12.5547 44.4504 13.2477 44.6788C14.0145 44.9223 14.7961 45.1507 15.5776 45.3181C16.89 45.6074 18.1877 45.8966 19.5148 46.1249C20.9157 46.3533 22.3166 46.5207 23.7322 46.6577C25.251 46.81 26.7846 46.9165 28.3182 46.9774C29.6306 47.0231 30.9578 47.0079 32.2849 46.9622C33.8922 46.9013 35.4995 46.7947 37.1069 46.6882C38.3013 46.5968 39.5105 46.536 40.6902 46.3381C42.2385 46.0945 43.8163 45.9879 45.3647 45.79C45.7776 45.7444 46.1904 45.6074 46.5738 45.4399C46.8098 45.3334 46.9867 45.105 47.1637 44.9071C47.2669 44.8006 47.3259 44.6331 47.3996 44.5113C48.1517 43.324 48.9037 42.1366 49.6558 40.9492C49.8327 40.6752 50.0392 40.4164 50.2014 40.1272C50.3341 39.9141 50.4373 39.6705 50.5405 39.4422C50.629 39.2747 50.688 39.0768 50.806 38.9246C51.676 37.859 52.2068 36.5651 52.9294 35.4081C53.5045 34.4948 53.9469 33.5053 54.4482 32.5615C55.0381 31.4502 55.5984 30.3085 56.2473 29.2125C56.6749 28.497 56.8813 27.675 57.368 26.9747C57.7366 26.4419 57.9873 25.8178 58.2822 25.2241C58.3412 25.1023 58.4002 24.9806 58.4444 24.8435C58.6361 24.3412 58.7983 23.8236 59.0048 23.3213C59.226 22.7885 59.4914 22.2709 59.7126 21.7533C59.9043 21.3271 60.0075 20.84 60.2729 20.4594C60.6858 19.8353 60.7596 19.1046 61.0545 18.45C61.143 18.2521 61.143 18.0085 61.1872 17.765C60.9808 17.7193 60.8628 17.6736 60.7301 17.6736C59.2407 17.5671 57.7514 17.4605 56.262 17.354C55.0233 17.2626 53.7847 17.1256 52.546 17.0799C50.8944 17.0191 49.2576 17.0038 47.6061 17.0191C45.925 17.0343 44.244 17.0799 42.5629 17.1713C40.9998 17.2626 39.4367 17.4148 37.8737 17.5518C36.9004 17.6432 35.9272 17.765 34.9687 17.902C33.6415 18.0846 32.3144 18.2521 31.002 18.4957C29.9845 18.6936 28.9818 18.9676 27.9938 19.2568C26.6666 19.6374 25.3248 19.9875 24.0418 20.5203C22.8769 21.0074 21.8004 21.6315 20.7682 22.347C20.1341 22.7885 19.5001 23.2299 18.866 23.6714C18.6595 23.8236 18.4236 23.8997 18.0992 23.7323C18.1877 23.5344 18.2466 23.3517 18.3499 23.1843C18.4383 23.032 18.6005 22.9255 18.689 22.7885C19.1904 22.073 19.9129 21.662 20.606 21.2205C21.0042 20.9617 21.4613 20.7639 21.8889 20.566C22.6557 20.2006 23.393 19.7744 24.2041 19.5004C25.9883 18.9219 27.8021 18.3891 29.6159 17.902C30.9872 17.5366 32.3734 17.2474 33.789 17.0799C34.4673 16.9886 35.1456 16.8516 35.824 16.7755C37.1953 16.6233 38.5667 16.5015 39.9381 16.3949C41.6634 16.2427 43.3739 16.1209 45.0992 16.1666C45.6743 16.1818 46.2494 16.1209 46.8245 16.1057C47.2817 16.0905 47.7388 16.0448 48.1959 16.0448C48.83 16.0448 49.4641 16.0905 50.0982 16.0905C51.2041 16.1057 52.3101 16.06 53.416 16.1818C54.5515 16.3036 55.7164 16.2884 56.8519 16.3493C58.1643 16.4254 59.4914 16.471 60.8038 16.608C61.2462 16.6537 61.5264 16.5319 61.7033 16.1818C61.9098 15.7403 62.1015 15.2837 62.2047 14.8118C62.4406 13.7918 62.6176 12.7719 62.8093 11.752C62.8683 11.4475 62.8977 11.1279 62.883 10.8082C62.8683 9.37724 62.6618 7.97675 62.1015 6.66759C62.013 6.45447 61.9245 6.22613 61.7918 6.04346C61.3642 5.41932 60.907 4.82564 60.2435 4.3994C59.5946 3.98839 59.0195 3.47081 58.2675 3.24247C57.4417 2.98369 56.6454 2.64878 55.8344 2.35955C55.7164 2.31388 55.5689 2.31389 55.4362 2.29866C54.8759 2.22255 54.3008 2.16166 53.7404 2.08554C55.7312 2.00943 57.6629 2.48133 59.5061 3.37948ZM48.9185 44.7092C48.9332 44.7549 48.9627 44.8006 48.9775 44.8615C49.1544 44.8462 49.3314 44.831 49.5083 44.8006C50.2161 44.6788 50.9239 44.5266 51.6317 44.3134C53.2538 43.8415 54.9054 43.5066 56.5274 43.0195C58.4887 42.4258 60.4352 41.7408 62.3816 41.1014C64.2691 40.4773 66.1124 39.7923 67.8672 38.8485C68.516 38.4983 69.1796 38.2091 69.8284 37.8894C70.5657 37.5241 71.3325 37.1892 72.0256 36.7477C73.1315 36.0323 74.267 35.3472 75.3139 34.5252C76.7296 33.4292 77.9977 32.2114 78.8677 30.6282C79.5608 29.3799 79.9589 28.0555 79.6198 26.5942C79.5166 26.1527 79.3396 25.7417 79.2069 25.3154C78.971 24.5391 78.5138 23.8997 77.9535 23.3669C76.818 22.2709 75.5204 21.3575 74.09 20.7182C72.7776 20.1245 71.4062 19.683 70.0496 19.2264C69.327 18.9828 68.5602 18.9067 67.8229 18.6783C66.4515 18.2673 65.0507 18.1151 63.6498 17.9324C62.9567 17.8411 62.7798 17.9781 62.5291 18.6631C62.4996 18.7392 62.4849 18.8153 62.4554 18.8915C61.9687 20.094 61.4821 21.2814 60.9955 22.4688C60.7301 23.1234 60.4352 23.7627 60.155 24.4173C60.1402 24.4478 60.1107 24.4934 60.1107 24.5239C60.1697 24.9958 59.8748 25.285 59.6536 25.6351C59.5651 25.7721 59.4767 25.8939 59.4029 26.0309C59.0785 26.6855 58.7246 27.3401 58.4297 28.0251C58.2085 28.5427 57.6924 28.8928 57.6481 29.5169C57.0141 30.7043 56.5127 31.9526 55.7459 33.0638C55.1413 33.9467 54.6989 34.9362 54.1828 35.8953C53.9026 36.4128 53.6372 36.9304 53.3423 37.4175C52.8262 38.27 52.2953 39.1073 51.7645 39.9597C51.2926 40.7209 50.8502 41.5124 50.3341 42.2431C49.8327 43.0347 49.3608 43.8568 48.9185 44.7092Z" fill="black"/>
<path d="M99.5862 16.4254C99.5567 16.5624 99.5419 16.6994 99.5125 16.8364C99.4092 17.3387 99.129 17.5366 98.6866 17.2931C98.4212 17.1561 98.2148 17.1713 97.9788 17.2778C97.4184 17.5214 96.8581 17.765 96.2977 18.0238C96.0323 18.1455 95.7668 18.1151 95.5751 17.8868C95.1328 17.354 95.2802 16.8973 95.9438 16.7298C96.2387 16.6537 96.5189 16.5776 96.7696 16.3493C96.9908 16.1514 97.3152 16.0753 97.5954 15.9382C97.8608 15.8165 98.1115 15.6947 98.377 15.5729C99.0406 15.2989 99.6304 15.7099 99.5862 16.4254Z" fill="black"/>
<path d="M67.3953 0.319679C67.3658 0.228342 67.3216 0.152227 67.2921 0.06089C67.2921 0.0456673 67.3806 0.0152227 67.4248 0C67.4544 0.0913365 67.4691 0.197895 67.4986 0.289231C67.4691 0.289231 67.4248 0.304456 67.3953 0.319679Z" fill="black"/>
<path d="M50.688 1.72018C50.7765 1.72018 50.8503 1.72018 50.9388 1.72018C50.9388 1.72018 50.9388 1.76532 50.9536 1.7954C50.865 1.7954 50.7765 1.7954 50.7027 1.7954C50.688 1.78036 50.688 1.75027 50.688 1.72018Z" fill="black"/>
</svg>
