<svg xmlns="http://www.w3.org/2000/svg" width="16" height="14" fill="none" viewBox="0 0 16 14">
    <path fill="#fff" d="M13.33 4.139C12.592 1.209 9.605-.57 6.659.166 4.356.74 2.684 2.719 2.512 5.074.877 5.342-.229 6.877.04 8.502.28 9.947 1.54 11.006 3.012 11h2v-.994h-2c-1.104 0-2-.89-2-1.99 0-1.097.896-1.988 2-1.988.276 0 .5-.222.5-.497-.003-2.471 2.01-4.477 4.495-4.48 2.151-.001 4.003 1.511 4.419 3.61.041.21.212.37.425.398 1.367.193 2.317 1.452 2.122 2.811-.174 1.22-1.222 2.13-2.462 2.136h-1.5V11h1.5c1.933-.006 3.495-1.569 3.489-3.49-.005-1.6-1.106-2.991-2.67-3.371z"/>
    <path fill="#fff" d="M8.423 12.527V7h-.85v5.527l-.974-1.08-.599.665L7.7 14h.6l1.7-1.888-.6-.666-.977 1.081z"/>
</svg>
