<svg xmlns="http://www.w3.org/2000/svg" width="126" height="156" fill="none" viewBox="0 0 126 156">
    <path fill="#fff" d="M6 0H0v6h6V0zM36 0h-6v6h6V0zM66 0h-6v6h6V0zM96 0h-6v6h6V0zM126 0h-6v6h6V0zM6 30H0v6h6v-6zM36 30h-6v6h6v-6zM66 30h-6v6h6v-6zM96 30h-6v6h6v-6zM126 30h-6v6h6v-6zM6 60H0v6h6v-6zM36 60h-6v6h6v-6zM66 60h-6v6h6v-6zM96 60h-6v6h6v-6zM126 60h-6v6h6v-6zM6 90H0v6h6v-6zM36 90h-6v6h6v-6zM66 90h-6v6h6v-6zM96 90h-6v6h6v-6zM126 90h-6v6h6v-6zM6 120H0v6h6v-6zM36 120h-6v6h6v-6zM66 120h-6v6h6v-6zM96 120h-6v6h6v-6zM126 120h-6v6h6v-6zM6 150H0v6h6v-6zM36 150h-6v6h6v-6zM66 150h-6v6h6v-6zM96 150h-6v6h6v-6zM126 150h-6v6h6v-6z"/>
</svg>
