<svg id="ev6fhku61i8q1" xmlns="http://www.w3.org/2000/svg" xmlns:xlink="http://www.w3.org/1999/xlink" viewBox="0 0 168 168" shape-rendering="geometricPrecision" text-rendering="geometricPrecision"><style><![CDATA[#ev6fhku61i8q2_tr {animation: ev6fhku61i8q2_tr__tr 1000ms linear infinite alternate forwards}@keyframes ev6fhku61i8q2_tr__tr { 0% {transform: translate(83.697374px,84px) rotate(0deg)} 50% {transform: translate(83.697374px,84px) rotate(2deg)} 100% {transform: translate(83.697374px,84px) rotate(4deg)} }#ev6fhku61i8q2_tk {animation: ev6fhku61i8q2_tk__tk 1000ms linear infinite alternate forwards}@keyframes ev6fhku61i8q2_tk__tk { 0% {transform: skewX(0deg) skewY(0deg)} 100% {transform: skewX(4deg) skewY(0deg)} }#ev6fhku61i8q2_ts {animation: ev6fhku61i8q2_ts__ts 1000ms linear infinite alternate forwards}@keyframes ev6fhku61i8q2_ts__ts { 0% {transform: scale(1,1)} 100% {transform: scale(0.960000,0.960000)} }#ev6fhku61i8q3_tr {animation: ev6fhku61i8q3_tr__tr 1000ms linear infinite alternate forwards}@keyframes ev6fhku61i8q3_tr__tr { 0% {transform: translate(84.003613px,83.991985px) rotate(0deg)} 100% {transform: translate(84.003613px,83.991985px) rotate(-4deg)} }#ev6fhku61i8q4_tr {animation: ev6fhku61i8q4_tr__tr 1000ms linear infinite alternate forwards}@keyframes ev6fhku61i8q4_tr__tr { 0% {transform: translate(80.155991px,80.135258px) rotate(0deg)} 100% {transform: translate(80.155991px,80.135258px) rotate(4deg)} }#ev6fhku61i8q4_tk {animation: ev6fhku61i8q4_tk__tk 1000ms linear infinite alternate forwards}@keyframes ev6fhku61i8q4_tk__tk { 0% {transform: skewX(0deg) skewY(0deg)} 100% {transform: skewX(4deg) skewY(0deg)} }#ev6fhku61i8q5_tr {animation: ev6fhku61i8q5_tr__tr 1000ms linear infinite alternate forwards}@keyframes ev6fhku61i8q5_tr__tr { 0% {transform: translate(77.562700px,75.008133px) rotate(0deg)} 100% {transform: translate(77.562700px,75.008133px) rotate(-16deg)} }#ev6fhku61i8q6_tr {animation: ev6fhku61i8q6_tr__tr 1000ms linear infinite alternate forwards}@keyframes ev6fhku61i8q6_tr__tr { 0% {transform: translate(76.252857px,72.300003px) rotate(0deg)} 100% {transform: translate(76.252857px,72.300003px) rotate(32deg)} }]]></style><g id="ev6fhku61i8q2_tr" transform="translate(83.697374,84) rotate(0)"><g id="ev6fhku61i8q2_tk" transform="skewX(0) skewY(0)"><g id="ev6fhku61i8q2_ts" transform="scale(1,1)"><path id="ev6fhku61i8q2" d="M52.400000,168C51.900000,168,51.600000,168,51.100000,168C27.400000,165.400000,28.600000,149.800000,30.100000,132C31.400000,116.900000,32.800000,99.800000,19.400000,86.800000C-4,64.600000,-2,45.800000,3.700000,33.900000C13.800000,13,41.800000,0,62,0C76.300000,0,97.600000,2.100000,118.300000,12.100000C138.800000,22,154.200000,37.800000,164.100000,58.500000C180.100000,92.400000,143.400000,108.400000,119.300000,119C114.900000,120.800000,110.900000,122.700000,107.700000,124.300000C99.400000,128.600000,91,137.500000,83,146C72.200000,157.300000,62,168,52.400000,168ZM62,1.400000C42.400000,1.400000,15,14.100000,5.200000,34.400000C-0.300000,45.900000,-2.200000,64.200000,20.500000,85.700000C34.500000,99,33.100000,116.500000,31.800000,132C30.300000,149.900000,29.100000,164.100000,51.300000,166.500000C60.500000,167.600000,70.800000,156.600000,81.700000,145C89.900000,136.300000,98.300000,127.300000,106.900000,123C110.300000,121.300000,114.300000,119.500000,118.700000,117.700000C130.800000,112.400000,145.700000,105.800000,155.800000,96.500000C167.400000,85.700000,169.600000,73.400000,162.900000,58.900000C137.900000,7,84,1.400000,62,1.400000Z" transform="translate(-84.001751,-84)" fill="rgb(0,0,0)" stroke="none" stroke-width="1"/></g></g></g><g id="ev6fhku61i8q3_tr" transform="translate(84.003613,83.991985) rotate(0)"><path id="ev6fhku61i8q3" d="M60.200000,147.300000C59.700000,147.300000,59.400000,147.300000,58.900000,147.100000C41.500000,144.500000,42.300000,133,43.300000,119.600000C44.100000,108.200000,45.100000,95.500000,34.900000,85.600000C17.700000,69.100000,19.200000,55,23.400000,46.200000C30.900000,30.600000,51.800000,20.700000,66.900000,20.700000C77.400000,20.500000,93.500000,22.100000,108.900000,29.500000C124.300000,36.800000,136,48.300000,143.700000,63.800000C150.400000,77,147.900000,87.900000,136,97.500000C128.500000,103.600000,117.900000,108.100000,109.600000,111.600000C106.800000,112.800000,103.900000,114,101.700000,115.100000C95.300000,118.100000,88.800000,124.800000,82.600000,131.300000C74.900000,139.400000,67.400000,147.300000,60.200000,147.300000ZM67.900000,21.300000C67.600000,21.300000,67.200000,21.300000,66.900000,21.300000C52,21.400000,31.400000,31.200000,24.100000,46.500000C19.900000,55.300000,18.400000,69.100000,35.500000,85.500000C45.900000,95.500000,44.900000,108.600000,44,119.900000C43,132.900000,42.200000,144.200000,59.100000,146.700000C66.100000,147.800000,74.200000,139.600000,82.400000,130.900000C88.600000,124.400000,95.100000,117.700000,101.600000,114.500000C103.900000,113.400000,106.600000,112.200000,109.500000,111C117.900000,107.400000,128.200000,103,135.800000,96.900000C147.300000,87.500000,149.900000,76.700000,143.300000,63.800000C123.900000,25.700000,84.800000,21.300000,67.900000,21.300000Z" transform="translate(-84.003613,-83.991985)" fill="rgb(0,0,0)" stroke="none" stroke-width="1"/></g><g id="ev6fhku61i8q4_tr" transform="translate(80.155991,80.135258) rotate(0)"><g id="ev6fhku61i8q4_tk" transform="skewX(0) skewY(0)"><path id="ev6fhku61i8q4" d="M62.200000,124.100000C58.800000,124.100000,56.300000,123.300000,54.600000,121.800000C51.200000,118.700000,51.600000,113.100000,51.700000,106.300000C52,97.900000,52.500000,88.200000,45.600000,81.300000C34.200000,69.800000,35.200000,60.100000,38.100000,54C43.300000,43.100000,57.200000,36.400000,67.600000,36.200000C77.900000,35.900000,87.700000,37.900000,96.300000,41.700000C106.600000,46.500000,114.900000,54.300000,120.600000,64.500000C126,74.200000,125.200000,82.400000,118.100000,89.200000C112.500000,94.600000,103.400000,98.200000,96.800000,100.900000C95.100000,101.500000,93.600000,102.100000,92.400000,102.700000C87.700000,104.800000,83.100000,109.100000,78.600000,113.400000C72.900000,118.800000,67.600000,123.800000,62.400000,124C62.400000,124.100000,62.400000,124.100000,62.200000,124.100000ZM69.600000,36.500000C68.900000,36.500000,68.400000,36.500000,67.700000,36.500000C57.600000,36.800000,43.600000,43.600000,38.500000,54.100000C35.600000,60.100000,34.600000,69.600000,45.900000,80.900000C53,88,52.500000,97.600000,52.100000,106.200000C51.800000,112.800000,51.600000,118.300000,54.800000,121.400000C56.500000,122.900000,58.800000,123.700000,62.200000,123.500000C67.100000,123.500000,72.300000,118.400000,78.100000,113.100000C82.700000,108.800000,87.200000,104.400000,91.900000,102.400000C93.200000,101.800000,94.800000,101.200000,96.300000,100.600000C103,98,112,94.300000,117.500000,89C124.400000,82.400000,125.300000,74.100000,120,64.800000C106.200000,39.700000,81.400000,36.500000,69.600000,36.500000Z" transform="translate(-80.155991,-80.135258)" fill="rgb(0,0,0)" stroke="none" stroke-width="1"/></g></g><g id="ev6fhku61i8q5_tr" transform="translate(77.562700,75.008133) rotate(0)"><path id="ev6fhku61i8q5" d="M96.800000,64.600000C92.900000,59.100000,88.100000,55.300000,82.400000,53.300000C78.500000,51.900000,74.300000,51.400000,69.900000,51.700000C64.700000,52.100000,57.900000,55.700000,55.300000,61.400000C53.800000,64.600000,53.200000,69.600000,58.700000,75.600000C61.900000,79.200000,61.700000,84.300000,61.600000,88.800000L61.600000,89C61.400000,92.800000,61.300000,95.900000,63.200000,97.500000C64,98.100000,65.100000,98.400000,66.400000,98.400000C66.500000,98.400000,66.600000,98.400000,66.700000,98.400000C67,98.400000,67.300000,98.300000,67.600000,98.400000L67.600000,98.400000L67.600000,98.400000C70,98.100000,72.400000,96.300000,74.900000,94.400000C75.200000,94.200000,75.500000,93.900000,75.800000,93.700000C76,93.500000,76.200000,93.300000,76.500000,93.200000C78.600000,91.500000,80.900000,89.700000,83.300000,88.900000L84.300000,88.600000L84.900000,88.400000C89.400000,86.700000,96.300000,84.100000,99.200000,80C102,75.700000,101.300000,71.100000,96.800000,64.600000ZM98.900000,79.300000C96.100000,83.300000,89.500000,85.800000,85.100000,87.400000C84.800000,87.500000,84.500000,87.600000,84.200000,87.700000L83.200000,88C80.500000,88.900000,78,90.900000,75.600000,92.800000L75,93.200000C72.300000,95.300000,69.900000,97.200000,67.500000,97.400000C65.700000,97.700000,64.400000,97.400000,63.400000,96.700000C61.700000,95.300000,61.800000,92.200000,62,88.600000L62,88C62.200000,83.500000,62.300000,78.400000,59.100000,74.900000C53.800000,69.100000,54.300000,64.200000,55.800000,61.200000C58.200000,56,64.900000,52.400000,70,52C70.600000,51.900000,71.400000,51.900000,72.400000,51.900000C78,51.900000,88.500000,53.600000,96.500000,64.800000C100.800000,71,101.600000,75.500000,98.900000,79.300000Z" transform="translate(-77.562700,-75.008133)" fill="rgb(0,0,0)" stroke="none" stroke-width="1"/></g><g id="ev6fhku61i8q6_tr" transform="translate(76.252857,72.300003) rotate(0)"><path id="ev6fhku61i8q6" display="none" d="M75,77.500000C72.100000,77.500000,69.800000,75.300000,69.800000,72.300000C69.800000,69.300000,72.100000,67.100000,75,67.100000C77.900000,67.100000,82.700000,69.900000,82.700000,72.800000C82.900000,75.700000,77.800000,77.500000,75,77.500000ZM75,67.500000C72.300000,67.500000,70.300000,69.600000,70.300000,72.300000C70.300000,75,72.500000,77.100000,75,77.100000C77.700000,77.100000,82.400000,75.400000,82.400000,72.800000C82.400000,70.300000,77.700000,67.500000,75,67.500000Z" transform="translate(-76.252857,-72.300003)" fill="rgb(0,0,0)" stroke="none" stroke-width="1"/></g></svg>