<svg id="ezb6krfhw63g1" xmlns="http://www.w3.org/2000/svg" xmlns:xlink="http://www.w3.org/1999/xlink" viewBox="0 0 168 168" shape-rendering="geometricPrecision" text-rendering="geometricPrecision"><style><![CDATA[#ezb6krfhw63g2_tr {animation: ezb6krfhw63g2_tr__tr 1000ms linear infinite alternate forwards}@keyframes ezb6krfhw63g2_tr__tr { 0% {transform: translate(83.870119px,84.018680px) rotate(0deg)} 100% {transform: translate(83.870119px,84.018680px) rotate(2deg)} }#ezb6krfhw63g2_tk {animation: ezb6krfhw63g2_tk__tk 1000ms linear infinite alternate forwards}@keyframes ezb6krfhw63g2_tk__tk { 0% {transform: skewX(0deg) skewY(0deg)} 100% {transform: skewX(0deg) skewY(-4deg)} }#ezb6krfhw63g2_ts {animation: ezb6krfhw63g2_ts__ts 1000ms linear infinite alternate forwards}@keyframes ezb6krfhw63g2_ts__ts { 0% {transform: scale(1,1)} 100% {transform: scale(0.960000,0.960000)} }#ezb6krfhw63g3_tr {animation: ezb6krfhw63g3_tr__tr 1000ms linear infinite alternate forwards}@keyframes ezb6krfhw63g3_tr__tr { 0% {transform: translate(77.387691px,85.271872px) rotate(0deg)} 100% {transform: translate(77.387691px,85.271872px) rotate(-4deg)} }#ezb6krfhw63g3_tk {animation: ezb6krfhw63g3_tk__tk 1000ms linear infinite alternate forwards}@keyframes ezb6krfhw63g3_tk__tk { 0% {transform: skewX(0deg) skewY(0deg)} 100% {transform: skewX(0deg) skewY(4deg)} }#ezb6krfhw63g4_tr {animation: ezb6krfhw63g4_tr__tr 1000ms linear infinite alternate forwards}@keyframes ezb6krfhw63g4_tr__tr { 0% {transform: translate(72.392342px,89.279613px) rotate(0deg)} 100% {transform: translate(72.392342px,89.279613px) rotate(-2deg)} }#ezb6krfhw63g5_tr {animation: ezb6krfhw63g5_tr__tr 1000ms linear infinite alternate forwards}@keyframes ezb6krfhw63g5_tr__tr { 0% {transform: translate(69.813602px,89.191761px) rotate(0deg)} 100% {transform: translate(69.813602px,89.191761px) rotate(8deg)} }]]></style><g id="ezb6krfhw63g2_tr" transform="translate(83.870119,84.018680) rotate(0)"><g id="ezb6krfhw63g2_tk" transform="skewX(0) skewY(0)"><g id="ezb6krfhw63g2_ts" transform="scale(1,1)"><path id="ezb6krfhw63g2" d="M149.600000,19C145.100000,15.700000,140.700000,14.300000,136.700000,15C133.200000,15.600000,130.100000,17.700000,127.600000,21.400000C118.100000,35.400000,107.300000,40,94.700000,35.300000C84,31.300000,73.800000,21.300000,65.700000,13.300000L65.300000,13C60,7.800000,55.500000,3.400000,52,1.800000C45.200000,-1.200000,39.700000,-1.200000,34.700000,1.700000C28.700000,5.300000,23.400000,13.500000,18.600000,26.800000C13.800000,39.600000,11.700000,43.600000,10.100000,46.700000L10,46.800000C8.200000,50.200000,7,52.700000,3.100000,66.300000C-0.700000,79.600000,-1.500000,88.100000,0.200000,95.900000C1.900000,104.100000,6.600000,111.600000,13.200000,120.300000C18.900000,127.800000,21,133.900000,22.600000,138.900000L22.700000,139.100000C25.500000,147.200000,27.900000,154.100000,41,162.900000C46.500000,166.600000,52.900000,168.500000,60.100000,168.500000C65.900000,168.500000,72.500000,167.100000,79,164.600000C85.700000,162.100000,91.300000,156.500000,94.900000,149L94.900000,149L95.200000,148.300000L95.300000,148L95.300000,148C98.300000,141.300000,104.400000,130.100000,113,127.500000C113.600000,127.300000,114.200000,127.100000,114.800000,126.900000C116.100000,126.500000,117.400000,126.100000,118.600000,125.700000L118.800000,125.600000C129.500000,122.100000,135.900000,120,151.600000,123.500000C155.300000,124.300000,158,123.800000,159.900000,121.800000C163.500000,118,163.600000,109.900000,163.700000,99.600000L163.700000,98.800000C163.700000,89.800000,163.700000,77.500000,167,66.500000C172.200000,49.800000,162,28.100000,149.600000,19ZM151.900000,122.400000C135.900000,118.700000,129.200000,121,118.300000,124.600000C117.200000,124.900000,116,125.300000,114.800000,125.700000C114.100000,125.900000,113.400000,126.200000,112.700000,126.400000C105.800000,128.600000,99.500000,135.800000,94,147.900000C90.700000,155.400000,85.200000,161,78.600000,163.500000C68.600000,167.300000,54.100000,170.200000,41.800000,161.700000C29.100000,153,26.700000,146.200000,24,138.400000L24,138.300000C22.300000,133.300000,20.200000,127,14.400000,119.300000C0.400000,100.700000,-2.500000,91.600000,4.500000,66.600000C8.400000,53.200000,9.600000,50.800000,11.300000,47.400000L11.400000,47.300000C12.800000,44.600000,15,40.500000,19.900000,27.200000C24.700000,14.200000,29.800000,6.200000,35.500000,2.800000C37.600000,1.500000,39.900000,0.800000,42.600000,0.800000C45.500000,0.800000,48.400000,1.500000,51.600000,3.100000C54.800000,4.600000,59.300000,9,64.500000,14.100000C75.600000,25,90.700000,40,106.200000,38.400000C114.400000,37.600000,122,32.200000,128.700000,22.300000C130.900000,19,133.600000,17,136.800000,16.400000C140.500000,15.700000,144.700000,17,149,20.200000C161,28.900000,171,50,166,66.200000C162.700000,76.600000,162.600000,87.900000,162.500000,97.800000L162.500000,99.700000C162.400000,109.700000,162.300000,117.600000,159.100000,120.900000C157.400000,122.700000,155.100000,123.100000,151.900000,122.400000Z" transform="translate(-83.870119,-84.018680)" fill="rgb(0,0,0)" stroke="none" stroke-width="1"/></g></g></g><g id="ezb6krfhw63g3_tr" transform="translate(77.387691,85.271872) rotate(0)"><g id="ezb6krfhw63g3_tk" transform="skewX(0) skewY(0)"><path id="ezb6krfhw63g3" d="M113.500000,43.100000C98.500000,52.500000,82.600000,42,74.500000,34.800000C73.200000,33.700000,72.100000,32.600000,70.900000,31.500000C70.200000,30.800000,69.500000,30.200000,68.900000,29.600000L68.600000,29.300000C65.200000,26.100000,62.300000,23.300000,59.700000,22.200000C51.200000,18.300000,45.100000,21.100000,36.400000,32.600000C34.300000,35.400000,32,37.500000,29.800000,39.500000C27.600000,41.400000,25.400000,43.500000,23.900000,46C20.200000,52.300000,18.800000,57.800000,16.600000,70.200000C14.600000,81.200000,14.900000,90.900000,17.500000,100.900000C20,110,24.700000,117.800000,29.200000,125.300000L29.900000,126.500000C30.600000,127.700000,31.400000,128.900000,32.100000,130.100000C32.900000,131.400000,33.600000,132.700000,34.300000,133.900000C34.600000,134.500000,35,135.100000,35.300000,135.700000C37.600000,140.100000,41,143.700000,45.800000,146.700000C49.400000,148.900000,53.300000,150,57.600000,150C62.300000,150,66.600000,148.700000,69.300000,147.600000C73.700000,145.800000,77.700000,142.200000,80.500000,137.200000C82.600000,133.600000,85,130.300000,87.800000,127.600000C89.800000,125.700000,91.900000,124,94.200000,122.600000C95.700000,121.700000,97.300000,120.900000,98.900000,120.200000C101.800000,119,104.800000,118.200000,107.700000,117.300000L108.300000,117.100000C112.900000,115.900000,117.400000,114.600000,121.600000,112.200000C127.300000,108.900000,128.800000,104.200000,129.600000,96.700000C129.800000,95.200000,129.900000,93.600000,130,92.100000L130,91.900000C130.400000,86.700000,130.900000,81.400000,132.800000,76.600000C140,58.200000,141.400000,46.200000,136.900000,40.700000C131.800000,34.400000,119.800000,39.300000,113.500000,43.100000ZM129.700000,92.200000C129.600000,93,129.600000,93.700000,129.500000,94.500000C129.400000,95.300000,129.300000,96,129.300000,96.800000C128.500000,104.200000,127,108.900000,121.500000,112C117.300000,114.400000,112.800000,115.700000,108.200000,116.800000L107.500000,117C104.600000,117.800000,101.600000,118.700000,98.700000,119.900000C97.100000,120.600000,95.600000,121.400000,94.100000,122.300000C91.800000,123.700000,89.600000,125.400000,87.600000,127.400000C84.700000,130.200000,82.100000,133.500000,80,137.200000C77.200000,142,73.300000,145.600000,69,147.400000C64.100000,149.400000,54.500000,152,46,146.500000C41.300000,143.500000,37.900000,140.100000,35.600000,135.700000C35.200000,135.100000,34.900000,134.400000,34.500000,133.800000C33.800000,132.500000,33.100000,131.200000,32.300000,130C31.500000,128.500000,30.600000,127.100000,29.700000,125.600000C29.400000,125,29,124.400000,28.700000,123.900000C24.600000,116.800000,20.300000,109.500000,18,101.100000C15.300000,91.300000,15,81.600000,17,70.500000C19.400000,57.600000,20.700000,52.600000,24.200000,46.600000C25.700000,44.100000,27.900000,42,30.100000,40.100000L30.300000,39.900000C32.400000,38,34.700000,35.900000,36.700000,33.100000C46.400000,20.400000,52.400000,19.700000,59.500000,22.800000C62,23.900000,64.800000,26.700000,68.200000,29.900000L68.500000,30.200000C70.300000,32,72.100000,33.800000,74.100000,35.400000C79.200000,39.900000,89.500000,47.600000,100.700000,47.600000C105.300000,47.600000,109.600000,46.300000,113.500000,43.900000C119.200000,40.300000,131.300000,35.200000,136.600000,41.400000C141,46.700000,139.600000,58.500000,132.400000,76.700000C130.500000,81.600000,130.100000,87,129.600000,92.200000L129.700000,92.200000Z" transform="translate(-77.387691,-85.271872)" fill="rgb(0,0,0)" stroke="none" stroke-width="1"/></g></g><g id="ezb6krfhw63g4_tr" transform="translate(72.392342,89.279613) rotate(0)"><path id="ezb6krfhw63g4" d="M112.200000,59.300000C111.900000,58.900000,111.600000,58.600000,111.200000,58.300000C107.700000,54.900000,103.200000,53.700000,98.900000,52.700000L98.200000,52.500000C96,52,93.800000,51.500000,91.500000,50.600000C87.200000,49,83.200000,46,79.300000,43.100000L78,42.200000C73.800000,39.200000,69.500000,36.100000,64.800000,34.600000C58.100000,32.500000,50.800000,33.600000,44.200000,37.700000C40.700000,39.900000,37.300000,43,34.500000,46.600000C24.300000,59.700000,25.500000,82.800000,26.100000,89.600000C26.900000,98.500000,29.700000,109.300000,33.700000,118.600000C37,126.500000,42.700000,137.100000,50.600000,142.100000C53.600000,144,56.600000,145,59.800000,145C63.500000,145,67.100000,143.800000,70.500000,141.400000C74.100000,139,77.100000,135.300000,80,131.800000L80.500000,131.200000C83.900000,127.100000,88.100000,121.900000,93.300000,119.500000C95.100000,118.600000,97.100000,118.100000,99.100000,117.600000C101.600000,117,104.200000,116.300000,106.600000,114.900000C112,111.500000,115,104.700000,116.600000,99.600000C116.800000,99,117,98.300000,117.100000,97.700000C119,90.900000,119.500000,83.600000,118.700000,76.600000C117.900000,69.200000,115.600000,63.100000,112.200000,59.300000ZM64.800000,34.900000C69.500000,36.300000,73.800000,39.400000,78,42.400000L78.900000,43.100000C82.700000,45.900000,87.100000,49,91.600000,50.800000C93.700000,51.500000,96,52.200000,98.400000,52.700000L98.700000,52.800000C103.100000,53.900000,107.600000,55.100000,111.200000,58.500000C111.500000,58.800000,111.800000,59.100000,112,59.400000C115.300000,63.200000,117.500000,69.200000,118.400000,76.500000C119.100000,83.400000,118.500000,90.600000,116.800000,97.500000C116.600000,98.100000,116.500000,98.700000,116.300000,99.300000C114,106.600000,110.700000,111.700000,106.500000,114.300000C104.200000,115.700000,101.600000,116.400000,99.100000,117C97.100000,117.500000,95.100000,118,93.200000,118.900000C88,121.300000,83.700000,126.500000,80.300000,130.700000L79.800000,131.400000C76.900000,134.900000,73.900000,138.500000,70.300000,140.900000C63.700000,145.600000,57.100000,145.900000,50.700000,141.800000C37,132.900000,27.800000,105.800000,26.500000,89.600000C25.700000,78.800000,25.600000,58.900000,34.800000,46.900000C37.500000,43.500000,40.700000,40.500000,44.500000,38C51.200000,33.900000,58.400000,32.900000,64.800000,34.900000Z" transform="translate(-72.392342,-89.279613)" fill="rgb(0,0,0)" stroke="none" stroke-width="1"/></g><g id="ezb6krfhw63g5_tr" transform="translate(69.813602,89.191761) rotate(0)"><path id="ezb6krfhw63g5" d="M36.100000,58.700000C33.500000,67,33.400000,75.700000,33.600000,80.200000C33.800000,88.600000,35.300000,96.800000,36.800000,104.500000C38.900000,114.500000,41.600000,125.800000,48.700000,132.500000C49.900000,133.700000,51.200000,134.700000,52.500000,135.400000C54.500000,136.500000,56.500000,137.100000,58.500000,137.100000C58.700000,137.100000,58.900000,137.100000,59,137C62.200000,136.900000,65.800000,135,69.300000,131.700000C70.500000,130.600000,71.700000,129.300000,72.900000,128C73.300000,127.600000,73.700000,127.100000,74.100000,126.700000C74.700000,126.100000,75.300000,125.400000,75.900000,124.700000C76.500000,124,77.100000,123.400000,77.700000,122.700000L77.800000,122.600000C80.200000,120.200000,82.900000,118.100000,85.500000,116C86,115.600000,86.600000,115.200000,87.100000,114.800000C87.100000,114.800000,87.200000,114.700000,87.200000,114.700000C89.700000,112.800000,92.200000,110.900000,94.600000,108.800000C99,104.800000,104.700000,98,105.900000,89C106.700000,82.400000,105,75.100000,101.200000,68.900000C97.600000,62.900000,92.800000,58.700000,88.100000,55.100000C80.500000,49.400000,74.300000,45.800000,68.700000,43.700000C60.700000,40.600000,53.600000,40.500000,47.700000,43.300000C42.500000,45.800000,38.500000,51,36.100000,58.700000ZM86.800000,114.700000C86.300000,115.100000,85.800000,115.500000,85.200000,115.900000C82.600000,117.900000,79.900000,120,77.500000,122.500000L77.400000,122.600000C76.800000,123.200000,76.200000,123.900000,75.600000,124.600000C75,125.300000,74.400000,125.900000,73.800000,126.600000C73.400000,127,73,127.500000,72.600000,127.900000C71.500000,129.200000,70.300000,130.500000,69,131.600000C65.600000,134.800000,62.100000,136.600000,58.900000,136.800000C58.900000,136.800000,58.800000,136.800000,58.800000,136.800000L58.700000,136.800000L58.700000,136.800000C56.600000,136.900000,54.500000,136.400000,52.400000,135.200000C51.100000,134.500000,49.900000,133.500000,48.700000,132.300000C41.900000,125.700000,39,114.500000,37,104.500000C35.500000,96.900000,34,88.600000,33.800000,80.300000C33.600000,73.400000,33.900000,50.400000,48,43.800000C50.800000,42.400000,53.800000,41.800000,57.200000,41.800000C65.800000,41.800000,76.100000,46.400000,87.800000,55.600000C93.600000,59.900000,97.800000,64.400000,100.800000,69.200000C104.600000,75.300000,106.300000,82.500000,105.400000,89C104.300000,97.800000,98.600000,104.600000,94.100000,108.700000C91.900000,110.800000,89.300000,112.800000,86.800000,114.700000C86.800000,114.700000,86.800000,114.700000,86.800000,114.700000Z" transform="translate(-69.813602,-89.191761)" fill="rgb(0,0,0)" stroke="none" stroke-width="1"/></g></svg>