<svg id="evwrxqtwtzhf1" xmlns="http://www.w3.org/2000/svg" xmlns:xlink="http://www.w3.org/1999/xlink" viewBox="0 0 168 168" shape-rendering="geometricPrecision" text-rendering="geometricPrecision"><style><![CDATA[#evwrxqtwtzhf2_tr {animation: evwrxqtwtzhf2_tr__tr 1000ms linear infinite alternate forwards}@keyframes evwrxqtwtzhf2_tr__tr { 0% {transform: translate(84.016702px,83.949913px) rotate(0deg)} 100% {transform: translate(84.016702px,83.949913px) rotate(2deg)} }#evwrxqtwtzhf2_tk {animation: evwrxqtwtzhf2_tk__tk 1000ms linear infinite alternate forwards}@keyframes evwrxqtwtzhf2_tk__tk { 0% {transform: skewX(0deg) skewY(0deg)} 100% {transform: skewX(4deg) skewY(0deg)} }#evwrxqtwtzhf2_ts {animation: evwrxqtwtzhf2_ts__ts 1000ms linear infinite alternate forwards}@keyframes evwrxqtwtzhf2_ts__ts { 0% {transform: scale(1,1)} 100% {transform: scale(0.960000,0.960000)} }#evwrxqtwtzhf3_tr {animation: evwrxqtwtzhf3_tr__tr 1000ms linear infinite alternate forwards}@keyframes evwrxqtwtzhf3_tr__tr { 0% {transform: translate(85.155800px,91.849983px) rotate(0deg)} 100% {transform: translate(85.155800px,91.849983px) rotate(-2deg)} }#evwrxqtwtzhf3_ts {animation: evwrxqtwtzhf3_ts__ts 1000ms linear infinite alternate forwards}@keyframes evwrxqtwtzhf3_ts__ts { 0% {transform: scale(1,1)} 100% {transform: scale(0.920000,0.920000)} }#evwrxqtwtzhf4_tr {animation: evwrxqtwtzhf4_tr__tr 1000ms linear infinite alternate forwards}@keyframes evwrxqtwtzhf4_tr__tr { 0% {transform: translate(89.291742px,94.307617px) rotate(0deg)} 100% {transform: translate(89.291742px,94.307617px) rotate(-2deg)} }#evwrxqtwtzhf4_ts {animation: evwrxqtwtzhf4_ts__ts 1000ms linear infinite alternate forwards}@keyframes evwrxqtwtzhf4_ts__ts { 0% {transform: scale(1,1)} 100% {transform: scale(0.920000,0.920000)} }]]></style><g id="evwrxqtwtzhf2_tr" transform="translate(84.016702,83.949913) rotate(0)"><g id="evwrxqtwtzhf2_tk" transform="skewX(0) skewY(0)"><g id="evwrxqtwtzhf2_ts" transform="scale(1,1)"><path id="evwrxqtwtzhf2" d="M168.100000,141.100000C167.700000,135,166.900000,130.400000,166.100000,125.600000L165.700000,123.300000C164.800000,118.600000,163.900000,113.800000,163.600000,107.300000C163.100000,99.200000,163.600000,93.900000,164.200000,87.300000L164.300000,85.900000C164.800000,81,165.300000,75.400000,165.600000,67.200000C165.900000,62.600000,166.300000,57.700000,166.600000,53.400000C167.500000,43.800000,168.500000,32.800000,166.600000,23.600000C164.500000,13.400000,159,6.300000,149.800000,2C149.700000,1.900000,134,-2.900000,124.900000,2C118,5.700000,114.900000,11.100000,111.700000,16.800000C107.600000,24,102.900000,32.100000,89.600000,38.500000C84.400000,41,76.400000,43.700000,67,46.900000L65,47.600000C39.400000,56.200000,7.600000,66.900000,1,82.800000C-1,87.900000,-0.300000,93.200000,3.100000,98.600000C16.900000,120.500000,26.600000,121.600000,41.300000,123.100000L41.400000,123.100000C48.100000,123.800000,56.400000,124.600000,67.200000,127.900000C94.500000,136.300000,103.900000,145.700000,111.500000,153.200000C113.100000,154.800000,114.600000,156.200000,116.200000,157.600000C124.400000,164.900000,129.200000,168.100000,140.500000,168.100000C142.400000,168.100000,144.500000,168,146.700000,167.700000C155,167,160.600000,164.300000,164,159.600000C167.200000,155.400000,168.400000,149.600000,168.100000,141.100000ZM135.500000,0.900000C140.500000,0.900000,145.500000,2,147.900000,2.500000C148.900000,2.700000,149.300000,2.800000,149.500000,2.800000C169.400000,12,167.500000,32.800000,165.700000,53L165.700000,53.200000C165.100000,58.400000,164.800000,63,164.700000,67.100000C164.400000,76,163.900000,82,163.400000,87.100000C162.700000,93.700000,162.200000,99,162.800000,107.300000C163.200000,113.700000,164,118.500000,164.900000,123.100000L165.200000,124.600000C166.300000,130,167.100000,134.700000,167.400000,141.100000C168.300000,157.800000,162.300000,165.500000,147.200000,166.600000C131.700000,167.900000,126.700000,164.900000,117.400000,156.800000C115.900000,155.500000,114.300000,153.900000,112.800000,152.400000L112.700000,152.300000C105,144.600000,95.300000,135.100000,67.900000,126.700000C57.100000,123.300000,48.700000,122.400000,41.900000,121.800000C27,120.300000,18,119.300000,4.300000,97.900000C1.100000,92.800000,0.500000,87.600000,2.400000,82.900000C8.700000,67.400000,40.500000,56.900000,66,48.400000L67.500000,47.900000C76.800000,44.800000,84.900000,42,90.200000,39.500000C103.900000,32.800000,108.800000,24.200000,112.600000,17.400000L112.700000,17.200000C115.900000,11.700000,118.900000,6.500000,125.300000,2.900000C127.900000,1.500000,131.200000,0.900000,135.500000,0.900000Z" transform="translate(-84.016702,-83.949913)" fill="rgb(0,0,0)" stroke="none" stroke-width="1"/></g></g></g><g id="evwrxqtwtzhf3_tr" transform="translate(85.155800,91.849983) rotate(0)"><g id="evwrxqtwtzhf3_ts" transform="scale(1,1)"><path id="evwrxqtwtzhf3" d="M102.900000,35.800000L102.500000,36.100000C98.600000,39.300000,94.600000,42.500000,85.200000,47.100000C80.100000,49.500000,72.300000,52.200000,64.800000,54.700000L64.700000,54.700000C44.900000,61.400000,20.200000,69.800000,14.100000,83.200000C11.900000,88.200000,12.300000,93.600000,15.400000,99.100000C19.400000,106.500000,23.600000,111.100000,29,114.100000C33.900000,116.800000,39.500000,118.100000,46.700000,119.800000L49.800000,120.500000C55.200000,121.700000,61.400000,123.100000,68.600000,125.400000C93.800000,133.200000,102.800000,141.700000,110,148.600000L110.300000,148.900000C111.200000,149.800000,112,150.600000,112.900000,151.300000C113.300000,151.700000,113.800000,152.100000,114.200000,152.500000C118.900000,156.600000,125.100000,159.200000,132.800000,160C135,160.200000,137.700000,160.500000,140.400000,160.500000C144.300000,160.500000,149.700000,160,153,156.400000C153.400000,156,153.800000,155.500000,154.200000,154.900000C157.700000,149.900000,156.800000,143.900000,156,138L155.900000,137.500000C155.500000,135.200000,155.200000,133.300000,155.100000,131.500000C154.700000,125.800000,155.100000,120,155.500000,114.900000C155.600000,113.500000,155.600000,112,155.700000,110.500000C155.800000,109.400000,155.800000,108.300000,155.900000,107.200000C156,101.800000,156.300000,96.400000,156.700000,91.300000C157.500000,75,158.100000,61.300000,157,46.700000C156.200000,37.500000,150.300000,29.100000,141.900000,25.300000C139.400000,24.200000,136.600000,23.500000,133.700000,23.200000C133.400000,23.200000,133.100000,23.300000,132.900000,23.300000C124.200000,22.900000,115.900000,26.800000,110.500000,30.100000C107.400000,32.100000,105.100000,34,102.900000,35.800000ZM133.600000,23.500000C136.800000,23.800000,139.500000,24.500000,141.700000,25.500000C145.900000,27.400000,149.500000,30.500000,152.200000,34.500000C154.800000,38.300000,156.300000,42.500000,156.600000,46.800000C157.900000,61.500000,157.100000,75.600000,156.400000,90.400000L156.400000,91.300000C156.200000,94.800000,156,98.500000,155.900000,102.200000L155.700000,107.200000C155.600000,108.600000,155.600000,110.100000,155.500000,111.600000C155.400000,112.700000,155.400000,113.800000,155.300000,114.900000C155,119.500000,154.600000,125.500000,154.900000,131.500000C155,133.500000,155.300000,135.500000,155.700000,137.500000L155.800000,137.900000C156.700000,143.800000,157.600000,149.900000,154.100000,154.800000C153.800000,155.200000,153.500000,155.600000,153.200000,156C148.200000,161.100000,139.300000,160.100000,133.300000,159.500000C125.700000,158.700000,119.500000,156.200000,114.900000,152.100000C113.600000,151,112.300000,149.800000,111,148.500000C103.700000,141.600000,94.700000,133,69,125C61.200000,122.600000,54.500000,121.100000,48.400000,119.700000L48.300000,119.700000C32.800000,116.200000,24.200000,114.300000,16,98.700000C13,93.100000,12.600000,87.900000,14.700000,83.200000C20.600000,69.800000,45.300000,61.600000,65,55C72.500000,52.500000,80.300000,49.900000,85.400000,47.400000C94.800000,42.900000,98.800000,39.600000,102.700000,36.400000L103.100000,36.100000C105.300000,34.300000,107.500000,32.400000,110.800000,30.300000C115.800000,27.200000,123.500000,23.600000,131.700000,23.600000C132,23.600000,132.400000,23.600000,132.800000,23.600000C133.300000,23.500000,133.400000,23.500000,133.600000,23.500000Z" transform="translate(-85.155800,-91.849983)" fill="rgb(0,0,0)" stroke="none" stroke-width="1"/></g></g><g id="evwrxqtwtzhf4_tr" transform="translate(89.291742,94.307617) rotate(0)"><g id="evwrxqtwtzhf4_ts" transform="scale(1,1)"><path id="evwrxqtwtzhf4" d="M115.900000,37.100000C114.400000,37.300000,112.800000,37.700000,111.300000,38.200000C103.500000,40.400000,96.200000,44.200000,89.100000,47.900000L88,48.500000C87.200000,48.900000,86.400000,49.300000,85.600000,49.700000C83.800000,50.700000,81.900000,51.600000,80,52.600000C75.300000,54.900000,69.100000,57,63.700000,58.900000L62.500000,59.300000C53,62.700000,42,66.500000,34.800000,72.100000C30.500000,75.400000,27.700000,79.200000,26.500000,83.300000C25.300000,87.400000,25.700000,92.100000,27.600000,97.100000C31.500000,107.100000,42.300000,113.600000,68.900000,121.900000C94.800000,130.100000,103.100000,137.500000,110.300000,144L111.400000,144.900000C116.800000,149.700000,121.300000,152.500000,128.600000,152.500000C131.400000,152.500000,134.500000,152.100000,137.500000,151.300000C142.300000,150.300000,145.100000,148,146.700000,144.900000C149.400000,139.900000,148.700000,132.800000,148.100000,126.200000L148.100000,125.800000C147.700000,122,147.400000,118.300000,147.900000,115.500000C148.400000,112.700000,149.100000,109.700000,150.100000,106.600000L150.400000,105.600000C151.500000,101.700000,152.600000,97.600000,152.700000,93.500000C153,84.400000,152.200000,76.600000,151.200000,67.400000C150.300000,59.300000,149,50.900000,144.500000,44.100000C143.900000,43.300000,143.200000,42.500000,142.400000,41.800000C134.300000,34,120.300000,36.200000,115.900000,37.100000ZM152.200000,93.800000C152.100000,97.900000,151,102,149.900000,105.900000L149.600000,106.800000C149.400000,107.400000,149.300000,108,149.100000,108.600000C148.500000,110.900000,147.800000,113.400000,147.400000,115.800000C146.900000,118.500000,147.300000,122.200000,147.600000,126L147.600000,126.300000C148.200000,132.800000,148.900000,139.900000,146.300000,144.900000C144.800000,147.700000,142.100000,149.800000,137.800000,150.700000C134.200000,151.400000,131.100000,151.800000,128.600000,151.800000C121.700000,151.800000,117.500000,149.300000,111.900000,144.300000L110.900000,143.500000L110.800000,143.400000C103.500000,136.900000,95.300000,129.500000,69.200000,121.300000C42.700000,113.100000,31.900000,106.700000,28.200000,96.800000C24.400000,86.900000,26.700000,79,35.200000,72.500000C42.300000,67,53.200000,63.200000,62.800000,59.900000L64,59.500000C69.500000,57.700000,75.700000,55.500000,80.400000,53.200000C82.300000,52.300000,84.100000,51.300000,86,50.300000C86.800000,49.900000,87.600000,49.500000,88.400000,49.100000C95.800000,45.200000,103.500000,41.300000,111.700000,38.800000C113.100000,38.400000,114.700000,38.100000,116.200000,37.700000C117.200000,37.500000,120.900000,36.700000,125.500000,36.700000C130.500000,36.700000,137.100000,37.700000,141.900000,42C142.600000,42.700000,143.300000,43.500000,143.900000,44.400000C148.400000,50.900000,149.700000,59.500000,150.600000,67.700000C151.700000,76.900000,152.500000,84.700000,152.200000,93.800000Z" transform="translate(-89.291742,-94.307617)" fill="rgb(0,0,0)" stroke="none" stroke-width="1"/></g></g></svg>