<svg id="erk0xzwsdwqs1" xmlns="http://www.w3.org/2000/svg" xmlns:xlink="http://www.w3.org/1999/xlink" viewBox="0 0 168 168" shape-rendering="geometricPrecision" text-rendering="geometricPrecision"><style><![CDATA[#erk0xzwsdwqs2_tr {animation: erk0xzwsdwqs2_tr__tr 1000ms linear infinite alternate forwards}@keyframes erk0xzwsdwqs2_tr__tr { 0% {transform: translate(104.001835px,97.449997px) rotate(0deg)} 100% {transform: translate(104.001835px,97.449997px) rotate(16deg)} }#erk0xzwsdwqs2_tk {animation: erk0xzwsdwqs2_tk__tk 1000ms linear infinite alternate forwards}@keyframes erk0xzwsdwqs2_tk__tk { 0% {transform: skewX(0deg) skewY(0deg)} 100% {transform: skewX(4deg) skewY(0deg)} }#erk0xzwsdwqs3_tr {animation: erk0xzwsdwqs3_tr__tr 1000ms linear infinite alternate forwards}@keyframes erk0xzwsdwqs3_tr__tr { 0% {transform: translate(102.075798px,96.890945px) rotate(0deg)} 100% {transform: translate(102.075798px,96.890945px) rotate(8deg)} }#erk0xzwsdwqs3_ts {animation: erk0xzwsdwqs3_ts__ts 1000ms linear infinite alternate forwards}@keyframes erk0xzwsdwqs3_ts__ts { 0% {transform: scale(1,1)} 100% {transform: scale(0.920000,0.920000)} }#erk0xzwsdwqs4_tr {animation: erk0xzwsdwqs4_tr__tr 1000ms linear infinite alternate forwards}@keyframes erk0xzwsdwqs4_tr__tr { 0% {transform: translate(100.514812px,97.287052px) rotate(0deg)} 100% {transform: translate(100.514812px,97.287052px) rotate(-2deg)} }#erk0xzwsdwqs4_ts {animation: erk0xzwsdwqs4_ts__ts 1000ms linear infinite alternate forwards}@keyframes erk0xzwsdwqs4_ts__ts { 0% {transform: scale(1,1)} 100% {transform: scale(0.920000,0.920000)} }#erk0xzwsdwqs5_tr {animation: erk0xzwsdwqs5_tr__tr 1000ms linear infinite alternate forwards}@keyframes erk0xzwsdwqs5_tr__tr { 0% {transform: translate(98.413685px,95.548313px) rotate(0deg)} 100% {transform: translate(98.413685px,95.548313px) rotate(6deg)} }#erk0xzwsdwqs6_tr {animation: erk0xzwsdwqs6_tr__tr 1000ms linear infinite alternate forwards}@keyframes erk0xzwsdwqs6_tr__tr { 0% {transform: translate(95.658989px,93.019527px) rotate(0deg)} 100% {transform: translate(95.658989px,93.019527px) rotate(-2deg)} }#erk0xzwsdwqs6_tk {animation: erk0xzwsdwqs6_tk__tk 1000ms linear infinite alternate forwards}@keyframes erk0xzwsdwqs6_tk__tk { 0% {transform: skewX(0deg) skewY(0deg)} 100% {transform: skewX(-8deg) skewY(4deg)} }#erk0xzwsdwqs7_tr {animation: erk0xzwsdwqs7_tr__tr 1000ms linear infinite alternate forwards}@keyframes erk0xzwsdwqs7_tr__tr { 0% {transform: translate(93.046909px,93.054405px) rotate(0deg)} 100% {transform: translate(93.046909px,93.054405px) rotate(2deg)} }#erk0xzwsdwqs8_tr {animation: erk0xzwsdwqs8_tr__tr 1000ms linear infinite alternate forwards}@keyframes erk0xzwsdwqs8_tr__tr { 0% {transform: translate(86.676556px,94.371815px) rotate(0deg)} 100% {transform: translate(86.676556px,94.371815px) rotate(0deg)} }#erk0xzwsdwqs8_ts {animation: erk0xzwsdwqs8_ts__ts 1000ms linear infinite alternate forwards}@keyframes erk0xzwsdwqs8_ts__ts { 0% {transform: scale(1,1)} 100% {transform: scale(0.980000,0.980000)} }#erk0xzwsdwqs9_tr {animation: erk0xzwsdwqs9_tr__tr 1000ms linear infinite alternate forwards}@keyframes erk0xzwsdwqs9_tr__tr { 0% {transform: translate(85.270968px,91.700016px) rotate(0deg)} 100% {transform: translate(85.270968px,91.700016px) rotate(-2deg)} }#erk0xzwsdwqs9_tk {animation: erk0xzwsdwqs9_tk__tk 1000ms linear infinite alternate forwards}@keyframes erk0xzwsdwqs9_tk__tk { 0% {transform: skewX(0deg) skewY(0deg)} 100% {transform: skewX(-2deg) skewY(0deg)} }#erk0xzwsdwqs10_tr {animation: erk0xzwsdwqs10_tr__tr 1000ms linear infinite alternate forwards}@keyframes erk0xzwsdwqs10_tr__tr { 0% {transform: translate(84.044589px,83.949908px) rotate(0deg)} 100% {transform: translate(84.044589px,83.949908px) rotate(2deg)} }#erk0xzwsdwqs10_tk {animation: erk0xzwsdwqs10_tk__tk 1000ms linear infinite alternate forwards}@keyframes erk0xzwsdwqs10_tk__tk { 0% {transform: skewX(0deg) skewY(0deg)} 100% {transform: skewX(0deg) skewY(-2deg)} }#erk0xzwsdwqs10_ts {animation: erk0xzwsdwqs10_ts__ts 1000ms linear infinite alternate forwards}@keyframes erk0xzwsdwqs10_ts__ts { 0% {transform: scale(1,1)} 100% {transform: scale(0.960000,0.980000)} }]]></style><g id="erk0xzwsdwqs2_tr" transform="translate(104.001835,97.449997) rotate(0)"><g id="erk0xzwsdwqs2_tk" transform="skewX(0) skewY(0)"><path id="erk0xzwsdwqs2" d="M109.800000,107.200000L109.800000,107.200000C108.600000,107.200000,107.800000,106.700000,107.300000,106.200000C107.100000,106,106.900000,105.900000,106.700000,105.600000L106.700000,105.600000C106.600000,105.500000,106.500000,105.400000,106.400000,105.300000C106.300000,105.200000,106.200000,105.100000,106.100000,105C105.300000,104.400000,104.500000,104,103.400000,103.600000C102.600000,103.400000,101.800000,103.200000,101.100000,103.100000C99.400000,102.800000,97.600000,102.400000,96.200000,101.400000C94.200000,100,93.700000,97.300000,94.800000,95.200000C95.800000,93.500000,97.900000,92.100000,99.900000,90.900000C100,90.800000,100.100000,90.800000,100.100000,90.800000C100.100000,90.800000,100.300000,90.700000,100.300000,90.700000C102.700000,89.200000,106.700000,86.800000,109.800000,88.300000C112.100000,89.400000,113.400000,91.800000,113.700000,95.300000C113.800000,96.500000,113.800000,97.700000,113.700000,99.100000L113.700000,99.100000C113.600000,99.400000,113.600000,99.900000,113.700000,100.300000C113.700000,100.500000,113.700000,100.800000,113.700000,101.100000C113.800000,103,113.900000,105.500000,112.400000,106.800000C111.700000,106.900000,110.900000,107.200000,109.800000,107.200000ZM107.500000,87.700000C104.900000,87.700000,102.100000,89.400000,100.300000,90.600000C100.200000,90.700000,100.100000,90.700000,100.100000,90.700000C100,90.800000,99.900000,90.800000,99.900000,90.800000C97.900000,92,95.800000,93.400000,94.900000,95.100000C93.700000,97.200000,94.300000,99.800000,96.200000,101.200000C97.600000,102.200000,99.300000,102.600000,101.100000,102.900000C101.800000,103,102.700000,103.200000,103.500000,103.400000C104.700000,103.700000,105.500000,104.200000,106.300000,104.800000C106.400000,104.900000,106.500000,105,106.600000,105.100000C106.700000,105.200000,106.800000,105.300000,106.900000,105.400000L106.900000,105.400000C107.100000,105.600000,107.300000,105.800000,107.500000,106C108.100000,106.500000,108.800000,107,109.900000,107L110,107C111,107,111.700000,106.800000,112.400000,106.400000C113.800000,105.200000,113.700000,102.700000,113.600000,100.800000C113.600000,100.600000,113.600000,100.300000,113.600000,100C113.600000,99.500000,113.500000,99.100000,113.600000,98.800000C113.700000,97.500000,113.700000,96.200000,113.600000,95C113.300000,91.500000,112,89.200000,109.800000,88.100000C108.900000,87.900000,108.200000,87.700000,107.500000,87.700000Z" transform="translate(-104.001835,-97.449997)" fill="rgb(0,0,0)" stroke="none" stroke-width="1"/></g></g><g id="erk0xzwsdwqs3_tr" transform="translate(102.075798,96.890945) rotate(0)"><g id="erk0xzwsdwqs3_ts" transform="scale(1,1)"><path id="erk0xzwsdwqs3" d="M112.500000,113.800000L112.500000,113.800000C110.500000,113.800000,109.100000,112.900000,108.100000,112C107.700000,111.700000,107.400000,111.400000,107,111L107,111C106.800000,110.800000,106.600000,110.700000,106.400000,110.500000C106.200000,110.300000,106,110.100000,105.800000,110C104.500000,109,103,108.200000,101.100000,107.600000C99.700000,107.200000,98.300000,106.900000,97.100000,106.700000C94.100000,106.100000,91.100000,105.500000,88.600000,103.700000C85.200000,101.300000,84.200000,96.600000,86.200000,92.900000C87.900000,89.900000,91.500000,87.500000,95,85.400000C95.100000,85.300000,95.300000,85.300000,95.400000,85.200000C95.500000,85.100000,95.700000,85,95.800000,85C99.900000,82.400000,106.800000,78.200000,112.200000,80.800000C116.200000,82.700000,118.400000,86.800000,118.900000,92.900000C119,94.900000,119,97.100000,118.900000,99.500000L118.900000,99.500000C118.800000,100.100000,118.800000,100.800000,118.900000,101.600000C118.900000,102,118.900000,102.400000,118.900000,102.900000C119,106.100000,119.200000,110.500000,116.700000,112.700000C115.700000,113.400000,114.300000,113.800000,112.500000,113.800000ZM108.400000,80.200000C103.900000,80.200000,99,83.200000,95.900000,85.200000C95.800000,85.300000,95.600000,85.300000,95.500000,85.400000C95.400000,85.500000,95.200000,85.600000,95.100000,85.600000C91.600000,87.700000,88,90.100000,86.400000,93C84.400000,96.600000,85.400000,101.100000,88.700000,103.500000C91.100000,105.200000,94,105.900000,97.100000,106.400000C98.300000,106.600000,99.800000,106.900000,101.200000,107.300000C103.200000,107.900000,104.700000,108.700000,106,109.700000C106.200000,109.900000,106.400000,110.100000,106.600000,110.200000C106.800000,110.400000,107,110.600000,107.200000,110.700000L107.200000,110.700000C107.600000,111,107.900000,111.400000,108.300000,111.700000C109.300000,112.500000,110.600000,113.400000,112.500000,113.400000L112.600000,113.400000C114.300000,113.400000,115.600000,113,116.700000,112.300000C119.100000,110.200000,118.900000,105.900000,118.800000,102.700000C118.800000,102.300000,118.800000,101.800000,118.800000,101.400000C118.800000,100.600000,118.700000,99.900000,118.800000,99.300000C118.900000,97,118.900000,94.800000,118.800000,92.800000C118.300000,86.800000,116.100000,82.800000,112.200000,80.900000C110.900000,80.500000,109.700000,80.200000,108.400000,80.200000Z" transform="translate(-102.075798,-96.890945)" fill="rgb(0,0,0)" stroke="none" stroke-width="1"/></g></g><g id="erk0xzwsdwqs4_tr" transform="translate(100.514812,97.287052) rotate(0)"><g id="erk0xzwsdwqs4_ts" transform="scale(1,1)"><path id="erk0xzwsdwqs4" d="M123.100000,82.900000C122.800000,82.300000,122.500000,81.600000,122.300000,81C120.700000,76.400000,118.100000,73.400000,114.500000,72.300000C106.700000,69.900000,96,76.300000,90.300000,79.700000C86.500000,82,82.100000,84.800000,78.600000,88.400000C75.900000,91.300000,74.400000,95.200000,74.900000,98.800000C75.300000,102,77.100000,104.900000,79.800000,106.700000C83.500000,109.200000,88.800000,110.700000,94.700000,110.900000C95.100000,110.900000,95.500000,110.900000,95.900000,111C101.600000,111.600000,104.300000,114.700000,106.900000,117.600000C109.100000,120.100000,111.100000,122.500000,114.800000,122.700000C115.700000,122.800000,116.500000,122.800000,117.300000,122.800000C119.900000,122.800000,121.600000,122.400000,122.600000,121.300000C124.200000,119.900000,124.200000,117.500000,123.900000,114.200000C123.900000,113.800000,123.800000,113.500000,123.800000,113C123.700000,112.300000,123.600000,111.500000,123.600000,110.600000C123.400000,106.500000,124.100000,104.500000,124.900000,102.500000C125.300000,101.400000,125.700000,100.400000,126,99.100000C126.300000,97.400000,126.300000,95.500000,126,93.100000C125.100000,88.200000,124.100000,85.200000,123.100000,82.900000ZM125.800000,99.500000C125.600000,100.700000,125.200000,101.800000,124.700000,102.800000C123.900000,104.800000,123.100000,106.900000,123.400000,111C123.500000,111.800000,123.600000,112.600000,123.600000,113.400000C123.600000,113.800000,123.700000,114.100000,123.700000,114.500000C123.900000,117.700000,124,120.100000,122.500000,121.400000C121.200000,122.500000,118.800000,122.900000,114.900000,122.600000C111.300000,122.400000,109.300000,119.900000,107.100000,117.500000C104.600000,114.600000,101.800000,111.400000,96,110.800000C95.600000,110.800000,95.200000,110.700000,94.800000,110.700000C88.800000,110.500000,83.500000,109,79.900000,106.500000C77.200000,104.600000,75.400000,101.900000,75.100000,98.700000C74.600000,95.100000,76,91.300000,78.700000,88.400000C82.100000,84.900000,86.500000,82,90.300000,79.700000C95.100000,76.800000,103.500000,71.800000,110.600000,71.800000C111.900000,71.800000,113.100000,71.900000,114.400000,72.400000C118,73.500000,120.500000,76.400000,122.100000,81C122.300000,81.700000,122.700000,82.300000,122.900000,83C123.800000,85.300000,124.900000,88.200000,125.700000,93.400000C126.100000,96,126.100000,97.900000,125.800000,99.500000Z" transform="translate(-100.514812,-97.287052)" fill="rgb(0,0,0)" stroke="none" stroke-width="1"/></g></g><g id="erk0xzwsdwqs5_tr" transform="translate(98.413685,95.548313) rotate(0)"><path id="erk0xzwsdwqs5" d="M127.700000,76.300000C127.300000,75.500000,126.900000,74.600000,126.700000,73.800000C124.600000,67.800000,121.100000,64.100000,116.500000,62.700000C106.300000,59.500000,92.300000,68,84.800000,72.500000C80.500000,75.100000,77,77.500000,74,79.900000C68,84.900000,65.200000,89.200000,64.800000,94.400000C64.300000,99.900000,66.900000,105.200000,71.300000,108.200000C76.100000,111.500000,83.100000,113.500000,91,113.800000C91.500000,113.800000,92,113.800000,92.600000,113.900000C100.100000,114.800000,103.900000,118.900000,107.100000,122.500000C110.100000,125.700000,112.800000,128.700000,117.700000,129C118.700000,129.100000,119.600000,129.100000,120.600000,129.100000C124.100000,129.100000,126.400000,128.500000,127.600000,127.300000C129.800000,125.400000,129.700000,122.100000,129.300000,117.700000C129.300000,117.100000,129.200000,116.600000,129.200000,116C129.100000,115,129.100000,114,128.900000,113C128.500000,107.600000,129.500000,104.900000,130.500000,102.200000C131,100.800000,131.500000,99.500000,131.800000,97.700000C132.200000,95.600000,132.200000,93.100000,131.700000,89.800000C130.500000,83.100000,128.900000,79.400000,127.700000,76.300000ZM131.400000,97.800000C131.100000,99.500000,130.600000,100.800000,130.100000,102.300000C129.100000,104.900000,128.200000,107.700000,128.500000,113.100000C128.600000,114.100000,128.600000,115.100000,128.800000,116.100000C128.800000,116.700000,128.900000,117.200000,128.900000,117.800000C129.300000,122.100000,129.400000,125.300000,127.300000,127.100000C125.600000,128.700000,122.500000,129.100000,117.300000,128.800000C112.500000,128.500000,109.800000,125.400000,106.900000,122.300000C103.700000,118.700000,99.800000,114.500000,92.300000,113.700000C91.800000,113.700000,91.300000,113.600000,90.700000,113.600000C82.900000,113.300000,76.100000,111.200000,71.300000,108C66.900000,105,64.400000,99.800000,64.800000,94.400000C65.200000,89.300000,68,84.900000,74,80.100000C77,77.700000,80.300000,75.400000,84.800000,72.800000C91.100000,69,102.200000,62.300000,111.500000,62.300000C113.200000,62.300000,114.700000,62.500000,116.300000,63C121,64.400000,124.300000,68.100000,126.400000,73.900000C126.800000,74.800000,127,75.600000,127.400000,76.500000C128.600000,79.400000,130.100000,83.100000,131.200000,90C131.700000,93.200000,131.800000,95.700000,131.400000,97.800000Z" transform="translate(-98.413685,-95.548313)" fill="rgb(0,0,0)" stroke="none" stroke-width="1"/></g><g id="erk0xzwsdwqs6_tr" transform="translate(95.658989,93.019527) rotate(0)"><g id="erk0xzwsdwqs6_tk" transform="skewX(0) skewY(0)"><path id="erk0xzwsdwqs6" d="M132.100000,69.700000C131.600000,68.700000,131.200000,67.600000,130.800000,66.600000C128.200000,59.100000,124,54.400000,118.200000,52.600000C105.600000,48.700000,88.300000,59,79.100000,64.500000C72.900000,68.200000,65.800000,72.800000,60.300000,78.600000C55.900000,83.200000,53.600000,89.500000,54.400000,95.400000C55,100.600000,57.900000,105.200000,62.300000,108.200000C68.200000,112.200000,76.800000,114.600000,86.400000,115C87,115,87.700000,115,88.300000,115.100000C97.500000,116.100000,101.800000,121,106,125.800000C109.500000,129.800000,112.800000,133.700000,118.800000,134.100000C120.200000,134.200000,121.600000,134.300000,122.800000,134.300000C127,134.300000,129.700000,133.600000,131.300000,131.900000C133.900000,129.700000,133.900000,125.700000,133.400000,120.400000C133.400000,119.700000,133.300000,119.200000,133.300000,118.500000C133.200000,117.300000,133,116,132.900000,114.700000C132.500000,108.100000,133.700000,104.800000,135,101.600000C135.600000,99.900000,136.300000,98.200000,136.700000,96.100000C137.200000,93.400000,137.200000,90.300000,136.700000,86.400000C135.400000,78.200000,133.700000,73.400000,132.100000,69.700000ZM136.500000,96.500000C136.100000,98.500000,135.500000,100.200000,134.800000,101.900000C133.500000,105.200000,132.200000,108.500000,132.700000,115.100000C132.800000,116.400000,133,117.700000,133.100000,118.900000C133.100000,119.500000,133.200000,120.100000,133.200000,120.700000C133.600000,125.900000,133.700000,129.800000,131.300000,131.900000C129.200000,133.700000,125.400000,134.300000,119,133.800000C113.200000,133.400000,109.900000,129.500000,106.400000,125.600000C102.300000,121,97.800000,115.800000,88.500000,114.800000C87.900000,114.800000,87.200000,114.700000,86.600000,114.700000C77,114.300000,68.400000,111.900000,62.600000,108C58.200000,105,55.400000,100.500000,54.800000,95.400000C54,89.600000,56.200000,83.400000,60.600000,78.800000C66.100000,73.100000,73.200000,68.500000,79.300000,64.800000C87.100000,60.200000,100.600000,52.100000,112.100000,52.100000C114.200000,52.100000,116.200000,52.300000,118.300000,53C124.100000,54.800000,128.200000,59.400000,130.700000,66.800000C131.100000,67.900000,131.600000,68.900000,132,70.100000C133.500000,73.800000,135.300000,78.500000,136.500000,86.900000C137,90.700000,137,93.800000,136.500000,96.500000Z" transform="translate(-95.658989,-93.019527)" fill="rgb(0,0,0)" stroke="none" stroke-width="1"/></g></g><g id="erk0xzwsdwqs7_tr" transform="translate(93.046909,93.054405) rotate(0)"><path id="erk0xzwsdwqs7" d="M136.700000,65.800000L136.700000,65.800000C136.200000,64.400000,135.700000,63.100000,135.300000,61.900000C132.400000,52.900000,127.400000,47.200000,120.400000,44.900000C105.500000,40.100000,85.100000,52.300000,74.100000,58.900000C69.400000,61.800000,65,64.700000,61,67.600000C52.700000,73.900000,47.600000,79.900000,45.300000,86C43.800000,89.700000,43.500000,93.600000,44.300000,97.600000C45.700000,104.600000,50.700000,110.100000,59,113.900000C67.100000,117.700000,76.300000,118.800000,82.500000,119.100000C95,119.700000,100.600000,126.300000,105.500000,132.100000L105.800000,132.500000C109.800000,137.200000,113.700000,141.600000,120.600000,142.100000L121,142.100000C122.700000,142.200000,124.400000,142.300000,125.800000,142.300000C130.800000,142.300000,133.700000,141.500000,135.500000,139.600000L135.500000,139.600000C138.800000,136.800000,138.300000,131.600000,137.700000,124.400000L137.700000,124.100000C137.700000,123.600000,137.600000,123.100000,137.600000,122.600000C137.500000,121.600000,137.400000,120.500000,137.300000,119.400000C136.700000,111.800000,138.100000,107.900000,139.600000,104.300000L139.600000,104.300000L139.600000,104.300000C139.600000,104.200000,139.700000,104.100000,139.700000,104C140.400000,102.100000,141.200000,100.200000,141.700000,97.800000C142.100000,96,142.300000,94,142.200000,91.400000C142.200000,89.800000,142.100000,88.100000,141.800000,86.100000C140.600000,75.700000,138.300000,70,136.700000,65.800000ZM137,119.500000C137.100000,121.100000,137.300000,122.700000,137.400000,124.200000C138.100000,131.900000,138.300000,136.800000,135.400000,139.400000C133,141.500000,128.400000,142.200000,120.900000,141.500000C113.900000,140.900000,110,136.200000,106.100000,131.700000C101.400000,126.100000,95.600000,119,82.700000,118.600000C76.600000,118.300000,67.600000,117.200000,59.400000,113.600000C51.200000,109.900000,46.300000,104.600000,44.900000,97.700000C44.200000,94,44.500000,90.200000,45.900000,86.400000L45.900000,86.300000L45.800000,86.200000C48.100000,80.100000,53.200000,74.200000,61.300000,68.100000C64.800000,65.500000,68.900000,62.800000,74.300000,59.500000L74.600000,59.300000C85.400000,52.800000,105.600000,40.800000,120.500000,45.400000C127.200000,47.600000,132.100000,53.200000,135,62C135.300000,63.100000,135.700000,64.100000,136.100000,65.100000C136.200000,65.400000,136.300000,65.600000,136.400000,65.900000C138,70,140.300000,75.700000,141.600000,86C141.800000,87.900000,142,89.600000,142,91.200000C142,93.700000,141.800000,95.800000,141.500000,97.600000C141,99.800000,140.300000,101.700000,139.600000,103.500000L139.500000,103.700000C138.100000,107.600000,136.500000,111.500000,137,119.500000Z" transform="translate(-93.046909,-93.054405)" fill="rgb(0,0,0)" stroke="none" stroke-width="1"/></g><g id="erk0xzwsdwqs8_tr" transform="translate(86.676556,94.371815) rotate(0)"><g id="erk0xzwsdwqs8_ts" transform="scale(1,1)"><path id="erk0xzwsdwqs8" d="M113.300000,37.100000C111.800000,37.400000,110.200000,37.800000,108.700000,38.200000C100.600000,40.500000,93,44.400000,85.400000,48.500000C82.800000,49.900000,80.100000,51.200000,77.500000,52.600000C73.700000,54.500000,68.900000,56.200000,63.900000,58C63,58.300000,62.200000,58.600000,61.300000,58.900000L60.800000,59C50.900000,62.500000,39.700000,66.400000,32.200000,72.100000C23.500000,78.900000,21.100000,87,25,97.100000C28.900000,107.100000,39.700000,113.600000,66.300000,122C92.300000,130.200000,100.500000,137.600000,107.800000,144.100000L108.800000,145C114.300000,149.800000,118.800000,152.600000,126,152.600000C128,152.600000,131.200000,152.400000,134.900000,151.400000C137.600000,150.800000,139.700000,149.900000,141.300000,148.500000C147.300000,143.900000,146.300000,134.700000,145.500000,126.400000L145.500000,126.300000C145.100000,122.400000,144.800000,118.600000,145.300000,115.900000C145.800000,113.100000,146.500000,110.100000,147.500000,106.900000L147.700000,106.200000C148.800000,102.200000,150,98,150.100000,93.800000C150.400000,84.600000,149.600000,76.900000,148.600000,67.700000C147.900000,61.600000,147,55.400000,144.700000,49.900000C143.900000,47.900000,142.900000,46.100000,141.800000,44.400000C138.800000,39.900000,133.900000,37.300000,127.400000,36.500000C121.900000,35.700000,116.800000,36.400000,113.300000,37.100000ZM145.100000,126L145.100000,126.300000C145.900000,134.500000,146.800000,143.600000,141,148.400000C139.500000,149.500000,137.700000,150.400000,135.300000,150.900000C131.900000,151.600000,128.800000,152,126.100000,152C119.100000,152,114.800000,149.400000,109.400000,144.600000L108.400000,143.700000L108.300000,143.600000C101,137.100000,92.800000,129.700000,66.800000,121.600000C40.300000,113.200000,29.500000,106.800000,25.800000,97C22,87.100000,24.300000,79.100000,32.800000,72.600000C39.900000,67.100000,50.700000,63.300000,60.300000,60L61.600000,59.500000C62.200000,59.300000,62.900000,59.100000,63.500000,58.800000C68.900000,56.900000,74,55.200000,78,53.200000C80.200000,52.200000,82.500000,51,84.700000,49.800000C85.100000,49.600000,85.600000,49.300000,86,49.100000L87,48.600000C94.100000,44.900000,101.500000,41.100000,109.300000,38.900000C110.700000,38.400000,112.300000,38.100000,113.800000,37.800000C116,37.300000,119.500000,36.800000,123.100000,36.800000C128.900000,36.800000,136.900000,38.200000,141.600000,44.700000C142.700000,46.300000,143.600000,48.100000,144.400000,49.900000C146.700000,55.400000,147.600000,61.700000,148.200000,67.800000C149.200000,77,150,84.700000,149.700000,94C149.600000,98.300000,148.400000,102.400000,147.300000,106.400000L147.100000,107C146.900000,107.600000,146.800000,108.300000,146.600000,108.900000C146,111.200000,145.300000,113.600000,144.900000,115.900000C144.400000,118.600000,144.800000,122.200000,145.100000,126Z" transform="translate(-86.676556,-94.371815)" fill="rgb(0,0,0)" stroke="none" stroke-width="1"/></g></g><g id="erk0xzwsdwqs9_tr" transform="translate(85.270968,91.700016) rotate(0)"><g id="erk0xzwsdwqs9_tk" transform="skewX(0) skewY(0)"><path id="erk0xzwsdwqs9" d="M102.900000,35.800000L102.500000,36.100000C98.600000,39.300000,94.600000,42.600000,85.200000,47.100000C80.700000,49.300000,74.100000,51.600000,67.100000,53.900000C66.300000,54.200000,65.500000,54.400000,64.700000,54.700000C45,61.500000,20.300000,69.800000,14.200000,83.200000C12,88.100000,12.500000,93.400000,15.500000,99C19.500000,106.300000,23.700000,111,29.100000,114C34,116.800000,39.800000,118.100000,47.100000,119.800000L48.200000,120.100000C53.300000,121.200000,60.300000,122.800000,68.700000,125.400000C94.300000,133.300000,103.200000,141.800000,110.400000,148.700000C111.700000,149.900000,113,151.200000,114.300000,152.300000C119,156.500000,125.300000,159.100000,132.800000,159.800000C133.300000,159.800000,133.700000,159.900000,134.200000,159.900000C136.200000,160.100000,138.200000,160.300000,140.400000,160.300000C145.600000,160.300000,149.300000,159.300000,151.800000,157.200000C152.700000,156.500000,153.600000,155.700000,154.300000,154.600000C157.800000,149.600000,156.900000,143.600000,156.100000,137.700000L156,137.300000C155.600000,135.200000,155.400000,133.100000,155.200000,131.200000C154.800000,125.600000,155.200000,119.800000,155.600000,114.700000C155.700000,112.100000,155.900000,109.500000,156,106.900000C156.100000,101.500000,156.400000,96.300000,156.800000,91C157.600000,74.700000,158.200000,61.100000,157.100000,46.400000C156.300000,37.300000,150.400000,28.900000,142.100000,25.100000C139.700000,24,136.900000,23.300000,133.900000,23.100000L133.900000,23.100000L133.900000,23.100000C133.700000,23.100000,133.600000,23.200000,133.400000,23.200000C124.500000,22.600000,116.100000,26.500000,110.600000,30C107.400000,32.100000,105.200000,33.900000,102.900000,35.800000ZM133.500000,23.400000C136.400000,23.600000,139.200000,24.300000,141.600000,25.400000C145.700000,27.300000,149.400000,30.400000,152.200000,34.400000C154.800000,38.100000,156.300000,42.400000,156.600000,46.700000C157.900000,61.500000,157.100000,75.500000,156.400000,90.400000L156.400000,91.200000C156.100000,96.400000,155.900000,101.900000,155.600000,107.100000C155.500000,109.700000,155.300000,112.300000,155.200000,114.800000C154.900000,119.400000,154.500000,125.300000,154.800000,131.300000C154.900000,133.200000,155.200000,135.200000,155.600000,137.400000L155.700000,137.800000C156.600000,143.600000,157.500000,149.700000,154,154.600000C153.400000,155.500000,152.700000,156.300000,151.900000,156.900000C146.900000,160.700000,139,159.900000,133.500000,159.300000L133.200000,159.300000C125.600000,158.500000,119.400000,156,114.800000,151.900000C113.500000,150.800000,112.200000,149.600000,111,148.400000L110.800000,148.300000C103.600000,141.400000,94.600000,132.700000,69.100000,124.900000C62,122.700000,56,121.300000,50.600000,120.100000C49.900000,119.900000,49.200000,119.800000,48.500000,119.600000C33,116.100000,24.400000,114.200000,16,98.800000C13,93.100000,12.600000,87.900000,14.700000,83.100000C20.700000,69.900000,45.300000,61.600000,65.100000,55C65.900000,54.700000,66.700000,54.500000,67.400000,54.200000C74.400000,51.800000,80.900000,49.600000,85.500000,47.400000C94.900000,42.800000,98.900000,39.600000,102.800000,36.400000L103.200000,36.100000C105.500000,34.200000,107.700000,32.400000,110.900000,30.400000C114.900000,27.900000,123,23.700000,131.800000,23.700000C132.300000,23.600000,132.800000,23.600000,133.500000,23.400000L133.500000,23.400000Z" transform="translate(-85.270968,-91.700016)" fill="rgb(0,0,0)" stroke="none" stroke-width="1"/></g></g><g id="erk0xzwsdwqs10_tr" transform="translate(84.044589,83.949908) rotate(0)"><g id="erk0xzwsdwqs10_tk" transform="skewX(0) skewY(0)"><g id="erk0xzwsdwqs10_ts" transform="scale(1,1)"><path id="erk0xzwsdwqs10" d="M168.100000,141.200000C167.700000,135,166.900000,130.500000,166.100000,125.600000L165.700000,123.400000C164.800000,118.800000,164,114,163.600000,107.500000C163.100000,99.300000,163.600000,94.100000,164.200000,87.500000L164.300000,86.100000C164.800000,81.100000,165.400000,75.500000,165.600000,67.300000C165.900000,62.800000,166.200000,58.200000,166.600000,53.400000C167.500000,43.800000,168.500000,32.900000,166.600000,23.600000C164.500000,13.400000,159,6.300000,149.800000,2C149.600000,1.900000,134,-2.900000,124.900000,2C117.900000,5.800000,114.700000,11.400000,111.700000,16.800000C107.600000,24,102.900000,32.100000,89.600000,38.500000C84.800000,40.900000,77.400000,43.400000,68.900000,46.200000C67.800000,46.600000,66.700000,46.900000,65.500000,47.300000C53.400000,51.300000,38.400000,56.300000,26.100000,62.100000C12.200000,68.900000,4,75.600000,1.100000,82.700000C-1,87.900000,-0.300000,93.200000,3.200000,98.600000C17.100000,120.500000,26.800000,121.500000,41.500000,123.100000L41.600000,123.100000C49,123.800000,57,124.700000,67.400000,127.900000C94.500000,136.300000,104.100000,145.700000,111.700000,153.200000L111.700000,153.200000C113.200000,154.700000,114.800000,156.300000,116.300000,157.600000C124.600000,164.900000,129.400000,168.100000,140.600000,168.100000C142.500000,168.100000,144.600000,168,146.800000,167.800000C155.100000,167.100000,160.700000,164.500000,164.100000,159.800000C167.200000,155.500000,168.500000,149.800000,168.100000,141.200000ZM135.500000,0.900000C142.500000,0.900000,149,2.800000,149.200000,3.100000L149.200000,3.100000C169.100000,12.300000,167.200000,33.200000,165.400000,53.300000L165.400000,53.500000C164.800000,58.500000,164.500000,63.300000,164.400000,67.400000C164.100000,76.400000,163.600000,82.200000,163.100000,87.500000C162.500000,94.100000,161.900000,99.400000,162.500000,107.700000C162.900000,114.100000,163.700000,118.900000,164.600000,123.500000L164.900000,125C165.900000,130.100000,166.800000,134.900000,167.100000,141.500000C168,158.200000,162,165.800000,146.900000,167C131.400000,168.300000,126.400000,165.400000,117.100000,157.200000L117,157.100000C115.500000,155.700000,114,154.300000,112.500000,152.700000L112.300000,152.500000C104.600000,144.900000,94.900000,135.400000,67.600000,127.100000C57.400000,123.900000,49.500000,123,42.500000,122.300000L41.600000,122.200000C26.700000,120.600000,17.800000,119.700000,4,98.200000C0.800000,93.100000,0.100000,88,2.100000,83.200000C8.600000,67.600000,40.400000,57,65.900000,48.500000L66.300000,48.400000C76.100000,45.100000,84.600000,42.200000,90.100000,39.600000C103.600000,33.100000,108.400000,24.900000,112.700000,17.600000L112.800000,17.400000C116,11.700000,119,6.500000,125.400000,3C128,1.600000,131.300000,0.900000,135.500000,0.900000Z" transform="translate(-84.044589,-83.949908)" fill="rgb(0,0,0)" stroke="none" stroke-width="1"/></g></g></g></svg>